<svg id="svg" version="1.1" xmlns="http://www.w3.org/2000/svg" xmlns:xlink="http://www.w3.org/1999/xlink" width="400" height="60.357142857142854" viewBox="0, 0, 400,60.357142857142854"><g id="svgg"><path id="path0" d="M69.053 10.347 C 68.940 10.460,68.243 10.507,67.173 10.472 L 65.474 10.417 65.594 11.333 C 65.941 13.981,65.729 23.328,65.328 23.080 C 65.099 22.939,65.122 24.722,65.352 24.952 C 65.864 25.464,65.315 25.551,62.314 25.439 C 59.120 25.319,58.919 25.286,58.743 24.862 C 58.320 23.840,58.491 15.397,58.932 15.566 C 59.118 15.637,59.167 15.448,59.167 14.661 C 59.167 14.109,59.092 13.667,59.000 13.667 C 58.901 13.667,58.833 13.028,58.833 12.083 L 58.833 10.500 53.076 10.500 L 47.318 10.500 47.426 15.125 C 47.485 17.669,47.541 26.444,47.551 34.625 L 47.570 49.500 48.442 49.500 C 48.921 49.500,49.360 49.575,49.417 49.667 C 49.566 49.909,50.676 49.879,50.625 49.634 C 50.602 49.525,50.808 49.384,51.083 49.321 C 51.892 49.135,55.167 49.146,55.167 49.333 C 55.167 49.425,55.429 49.500,55.750 49.500 C 56.157 49.500,56.333 49.425,56.333 49.250 C 56.333 49.112,56.465 48.999,56.625 48.997 C 57.281 48.992,57.368 48.756,57.488 46.656 C 57.564 45.313,57.673 44.581,57.802 44.538 C 58.049 44.456,58.067 42.936,57.826 42.487 C 57.637 42.133,57.866 34.993,58.084 34.458 C 58.292 33.946,64.145 34.134,64.034 34.650 C 63.996 34.827,64.136 34.854,64.659 34.771 L 65.333 34.663 65.333 35.401 C 65.333 36.251,65.197 36.705,64.983 36.573 C 64.899 36.521,64.833 37.071,64.833 37.814 C 64.833 38.643,64.906 39.192,65.026 39.266 C 65.168 39.354,65.192 40.656,65.118 44.255 L 65.018 49.125 66.342 49.241 C 67.326 49.327,67.667 49.418,67.667 49.595 C 67.667 49.766,67.877 49.833,68.417 49.833 C 68.857 49.833,69.167 49.757,69.167 49.648 C 69.167 49.516,70.004 49.480,72.039 49.523 L 74.912 49.583 75.043 48.667 C 75.116 48.163,75.248 47.725,75.338 47.694 C 75.556 47.620,75.546 45.279,75.326 45.059 C 75.101 44.834,75.364 35.692,75.601 35.529 C 75.703 35.459,75.761 33.171,75.757 29.453 C 75.752 25.579,75.810 23.447,75.920 23.369 C 76.030 23.292,76.089 21.130,76.087 17.208 L 76.083 11.167 75.667 11.164 C 74.992 11.161,74.500 10.978,74.500 10.731 C 74.500 10.596,74.327 10.500,74.083 10.500 C 73.854 10.500,73.667 10.575,73.667 10.667 C 73.667 10.851,71.361 10.897,70.521 10.729 C 70.234 10.672,70.000 10.522,70.000 10.396 C 70.000 10.124,69.312 10.088,69.053 10.347 M262.931 10.292 C 262.862 10.360,260.737 10.454,258.208 10.500 L 253.610 10.583 253.317 11.083 C 253.156 11.358,253.019 11.707,253.012 11.857 C 253.005 12.008,252.883 12.176,252.739 12.231 C 252.596 12.286,252.528 12.410,252.587 12.506 C 252.647 12.602,252.616 12.777,252.518 12.895 C 252.400 13.037,252.312 16.364,252.255 22.929 C 252.207 28.331,252.137 35.262,252.098 38.333 C 252.060 41.404,252.090 43.729,252.164 43.500 C 252.280 43.144,252.306 43.193,252.338 43.833 C 252.359 44.246,252.422 45.406,252.480 46.412 L 252.583 48.241 254.132 49.026 C 255.967 49.957,255.956 49.955,264.389 50.096 C 268.403 50.163,269.754 50.135,269.938 49.983 C 270.104 49.845,271.244 49.761,273.549 49.718 C 277.896 49.637,278.324 49.585,278.213 49.159 C 278.156 48.941,278.212 48.833,278.382 48.833 C 278.553 48.833,278.607 48.726,278.548 48.500 C 278.500 48.314,278.543 48.167,278.647 48.167 C 278.750 48.167,278.833 48.056,278.833 47.922 C 278.833 47.787,278.983 47.410,279.167 47.083 C 279.460 46.561,279.500 46.181,279.500 43.912 C 279.500 42.304,279.563 41.333,279.667 41.333 C 279.762 41.333,279.833 40.840,279.833 40.186 C 279.833 38.990,279.426 38.500,278.433 38.500 C 278.287 38.500,278.167 38.387,278.167 38.250 C 278.167 37.967,277.416 37.899,277.250 38.167 C 277.012 38.552,273.000 38.295,273.000 37.894 C 273.000 37.628,272.075 37.576,271.917 37.833 C 271.860 37.925,271.518 38.000,271.157 38.000 C 270.587 38.000,270.500 38.050,270.498 38.375 C 270.494 39.011,270.305 39.500,270.064 39.500 C 269.787 39.500,269.759 39.768,270.019 39.929 C 270.294 40.098,270.091 41.522,269.757 41.766 C 269.580 41.895,269.544 42.007,269.657 42.077 C 269.895 42.225,269.881 42.886,269.633 43.133 C 269.249 43.517,266.373 43.275,266.458 42.866 C 266.510 42.618,265.635 42.598,265.392 42.842 C 265.293 42.940,264.717 42.995,264.067 42.967 L 262.917 42.917 262.976 41.271 C 263.019 40.064,262.978 39.589,262.822 39.493 C 262.392 39.228,262.257 28.939,262.590 21.875 C 262.648 20.636,262.624 19.833,262.529 19.833 C 262.324 19.833,262.121 18.480,262.268 18.096 C 262.418 17.707,266.745 17.754,266.989 18.148 C 267.101 18.329,267.389 18.354,268.316 18.263 L 269.501 18.146 269.685 18.615 C 269.810 18.935,269.818 19.282,269.708 19.708 C 269.583 20.193,269.595 20.333,269.763 20.333 C 270.065 20.333,270.269 21.797,270.022 22.193 C 269.868 22.440,269.896 22.562,270.166 22.832 C 270.352 23.018,270.500 23.388,270.500 23.667 L 270.500 24.167 275.146 24.167 L 279.792 24.167 279.792 23.750 C 279.792 23.521,279.715 23.333,279.621 23.333 C 279.301 23.333,279.599 19.128,279.936 18.882 C 280.194 18.694,280.200 18.584,280.003 17.762 C 279.836 17.066,279.823 16.444,279.947 15.133 C 280.142 13.063,280.244 13.324,278.719 11.981 L 277.467 10.879 273.359 10.761 C 269.061 10.638,268.160 10.551,268.756 10.318 C 268.936 10.248,267.727 10.185,266.069 10.178 C 264.412 10.172,262.999 10.223,262.931 10.292 M79.299 12.366 C 79.249 13.578,79.154 14.254,79.028 14.296 C 78.810 14.369,78.780 15.330,78.943 17.057 L 79.051 18.198 80.192 18.957 C 80.820 19.374,81.333 19.817,81.333 19.941 C 81.333 20.116,81.712 20.167,83.010 20.167 C 83.942 20.167,84.646 20.101,84.595 20.019 C 84.477 19.828,85.070 19.672,85.920 19.669 C 86.366 19.667,86.805 19.520,87.236 19.227 C 88.320 18.491,88.500 18.281,88.503 17.755 C 88.506 17.144,88.729 16.749,88.981 16.905 C 89.083 16.968,89.167 16.945,89.167 16.853 C 89.167 16.761,89.092 16.640,89.000 16.583 C 88.595 16.333,88.857 14.667,89.301 14.667 C 89.508 14.667,89.522 14.622,89.367 14.467 C 88.972 14.072,89.187 12.500,89.636 12.500 C 89.841 12.500,89.856 12.456,89.700 12.300 C 89.590 12.190,89.500 12.005,89.500 11.889 C 89.500 11.773,89.257 11.413,88.959 11.089 L 88.419 10.500 83.898 10.500 L 79.376 10.500 79.299 12.366 M208.895 10.875 C 208.950 11.081,208.996 12.835,208.998 14.772 L 209.000 18.294 210.083 19.000 C 210.679 19.388,211.167 19.810,211.167 19.936 C 211.167 20.117,211.527 20.167,212.843 20.167 C 213.775 20.167,214.479 20.101,214.428 20.019 C 214.307 19.822,214.911 19.672,215.839 19.669 C 217.072 19.665,218.650 18.268,218.535 17.282 C 218.441 16.476,218.612 15.833,218.920 15.833 C 219.056 15.833,219.167 15.758,219.167 15.667 C 219.167 15.575,219.092 15.500,219.000 15.500 C 218.819 15.500,218.771 14.357,218.934 13.930 C 218.990 13.785,219.140 13.667,219.268 13.667 C 219.396 13.667,219.500 13.592,219.500 13.500 C 219.500 13.408,219.425 13.333,219.333 13.333 C 219.242 13.333,219.167 12.906,219.167 12.384 C 219.167 11.581,219.098 11.363,218.719 10.967 L 218.271 10.500 213.533 10.500 L 208.794 10.500 208.895 10.875 M124.746 13.826 C 124.914 14.099,124.630 16.179,124.392 16.417 C 124.126 16.684,124.097 17.197,124.335 17.435 C 124.641 17.741,124.307 20.921,123.972 20.896 C 123.802 20.883,123.727 20.963,123.779 21.100 C 123.839 21.255,123.668 21.356,123.222 21.427 C 122.822 21.491,122.343 21.746,121.956 22.101 L 121.333 22.671 121.333 24.595 C 121.333 25.764,121.395 26.481,121.491 26.422 C 121.581 26.367,121.671 26.705,121.699 27.204 C 121.745 28.000,121.789 28.088,122.167 28.137 C 122.396 28.166,122.662 28.292,122.759 28.415 C 122.855 28.539,123.080 28.628,123.259 28.612 C 123.575 28.584,123.582 28.721,123.547 33.826 C 123.509 39.106,123.460 39.803,123.160 39.329 C 122.958 39.009,122.945 45.730,123.147 46.127 C 123.228 46.286,123.397 46.642,123.522 46.917 C 123.647 47.192,123.787 47.454,123.833 47.500 C 123.879 47.546,124.028 47.808,124.164 48.083 C 124.299 48.358,124.580 48.815,124.788 49.099 C 124.996 49.383,125.167 49.739,125.167 49.891 C 125.167 50.238,128.090 50.312,128.205 49.967 C 128.294 49.701,132.561 49.526,139.356 49.511 C 144.867 49.499,145.490 49.425,145.366 48.792 C 145.335 48.631,145.389 48.500,145.488 48.500 C 145.586 48.500,145.667 48.420,145.667 48.322 C 145.667 48.224,145.892 47.816,146.167 47.417 C 146.442 47.017,146.667 46.610,146.667 46.512 C 146.667 46.414,146.779 46.333,146.917 46.333 C 147.056 46.333,147.167 46.185,147.167 46.000 C 147.167 45.815,147.278 45.667,147.417 45.667 C 147.630 45.667,147.667 45.222,147.667 42.667 C 147.667 40.222,147.624 39.667,147.436 39.667 C 147.309 39.667,147.071 39.460,146.908 39.208 C 146.492 38.567,146.004 38.167,145.636 38.167 C 145.464 38.167,145.280 38.054,145.227 37.917 C 145.114 37.623,144.241 37.578,144.068 37.857 C 143.882 38.160,139.880 37.927,139.510 37.593 C 139.049 37.175,138.904 37.288,138.972 38.011 C 139.028 38.588,138.985 38.702,138.685 38.780 C 138.331 38.873,138.190 39.167,138.500 39.167 C 138.851 39.167,138.680 40.173,138.305 40.311 C 138.065 40.400,138.009 40.486,138.138 40.566 C 138.246 40.632,138.333 40.860,138.333 41.073 C 138.333 41.479,137.964 41.908,137.776 41.721 C 137.716 41.660,137.667 41.690,137.667 41.785 C 137.667 42.531,133.081 42.463,132.893 41.714 C 132.761 41.189,132.947 39.601,133.148 39.534 C 133.239 39.504,133.265 37.887,133.210 35.532 C 133.115 31.469,133.205 29.879,133.551 29.468 C 133.815 29.155,136.440 29.301,136.375 29.625 C 136.323 29.884,138.925 29.924,139.083 29.667 C 139.144 29.568,140.165 29.500,141.583 29.500 C 143.901 29.500,144.005 29.485,144.744 29.042 L 145.509 28.583 145.419 26.500 C 145.281 23.286,145.258 23.000,145.140 23.000 C 145.080 23.000,144.817 22.663,144.557 22.250 L 144.083 21.501 140.083 21.499 C 135.264 21.497,133.748 21.387,134.020 21.059 C 134.165 20.885,134.146 20.833,133.937 20.833 C 133.788 20.833,133.667 20.908,133.667 21.000 C 133.667 21.092,133.554 21.167,133.417 21.167 C 133.204 21.167,133.166 20.734,133.162 18.292 L 133.157 15.417 132.664 14.875 L 132.171 14.333 130.110 14.333 C 126.771 14.333,124.517 13.954,126.875 13.790 C 127.429 13.751,127.181 13.717,126.198 13.697 C 125.246 13.679,124.685 13.728,124.746 13.826 M344.346 13.875 C 344.417 14.425,344.311 14.999,344.098 15.212 C 343.913 15.397,343.882 15.807,343.954 17.117 C 344.062 19.082,343.928 20.072,343.573 19.936 C 343.387 19.864,343.333 20.008,343.333 20.581 C 343.333 21.302,343.320 21.321,342.708 21.429 C 342.365 21.490,341.877 21.733,341.625 21.968 L 341.167 22.396 341.167 25.281 L 341.167 28.167 341.586 28.167 C 341.816 28.167,342.135 28.236,342.294 28.321 C 342.453 28.406,342.715 28.516,342.875 28.566 C 343.110 28.639,343.167 28.849,343.167 29.641 C 343.167 30.861,343.010 31.692,342.803 31.565 C 342.707 31.505,342.684 32.766,342.744 34.859 C 343.112 47.696,343.111 47.667,343.519 47.667 C 343.600 47.667,343.668 47.760,343.670 47.875 C 343.672 47.990,343.821 48.271,344.000 48.500 C 344.179 48.729,344.328 49.040,344.330 49.191 C 344.332 49.341,344.446 49.508,344.583 49.560 C 344.721 49.613,344.833 49.771,344.833 49.911 C 344.833 50.277,347.240 50.271,347.977 49.903 C 348.428 49.678,349.674 49.625,356.472 49.544 L 364.439 49.449 364.840 48.849 C 365.061 48.520,365.327 48.100,365.432 47.917 C 365.536 47.733,365.898 47.133,366.236 46.583 L 366.850 45.583 366.800 42.583 C 366.744 39.215,366.504 38.442,365.444 38.219 C 365.184 38.164,364.932 38.017,364.885 37.893 C 364.778 37.617,363.667 37.585,363.667 37.858 C 363.667 38.178,359.314 37.927,359.070 37.594 C 358.784 37.203,358.667 37.277,358.667 37.849 C 358.667 38.224,358.576 38.388,358.333 38.452 C 357.993 38.541,357.865 38.833,358.167 38.833 C 358.352 38.833,358.388 39.330,358.232 39.736 C 358.177 39.881,358.017 40.000,357.878 40.000 C 357.674 40.000,357.665 40.047,357.832 40.248 C 358.091 40.561,357.913 41.333,357.580 41.333 C 357.300 41.333,357.249 41.595,357.500 41.750 C 357.805 41.938,357.672 42.191,357.292 42.148 C 357.085 42.124,356.742 42.163,356.529 42.234 C 355.830 42.468,352.678 42.166,352.508 41.849 C 352.290 41.441,352.554 37.121,352.802 37.038 C 353.050 36.955,353.064 35.525,352.823 34.889 C 352.535 34.131,352.806 29.522,353.149 29.359 C 353.587 29.151,356.090 29.381,356.042 29.625 C 355.990 29.883,358.425 29.923,358.583 29.667 C 358.644 29.568,359.716 29.498,361.218 29.495 C 364.695 29.488,364.604 29.570,364.693 26.329 C 364.739 24.643,364.819 23.922,364.963 23.874 C 365.206 23.793,365.239 23.333,365.002 23.333 C 364.911 23.333,364.563 22.921,364.228 22.417 L 363.619 21.500 359.685 21.499 C 355.008 21.497,353.445 21.385,353.570 21.058 C 353.617 20.935,353.590 20.833,353.509 20.833 C 353.428 20.833,353.332 20.922,353.296 21.030 C 353.259 21.140,353.106 21.179,352.948 21.119 C 352.699 21.023,352.667 20.684,352.667 18.185 C 352.667 15.388,352.662 15.354,352.235 14.846 L 351.804 14.333 349.610 14.332 C 346.337 14.330,344.222 13.966,346.458 13.789 C 346.929 13.752,346.656 13.715,345.784 13.697 C 344.695 13.674,344.326 13.720,344.346 13.875 M108.267 21.068 C 108.435 21.507,105.607 21.571,97.972 21.303 C 97.394 21.283,96.926 21.354,96.765 21.487 C 96.621 21.607,95.996 21.745,95.377 21.795 C 94.337 21.879,94.184 21.943,93.375 22.641 L 92.500 23.397 92.500 24.428 C 92.500 25.691,92.345 26.527,92.136 26.398 C 92.039 26.338,92.014 27.026,92.072 28.192 C 92.123 29.232,92.208 31.236,92.261 32.645 C 92.360 35.271,92.591 36.000,93.326 36.000 C 93.422 36.000,93.500 36.059,93.500 36.131 C 93.500 36.203,93.725 36.394,94.000 36.557 C 94.275 36.719,94.500 36.960,94.500 37.093 C 94.500 37.380,94.766 37.411,94.931 37.144 C 95.129 36.823,98.025 37.080,98.289 37.441 C 98.478 37.700,98.570 37.708,99.099 37.517 C 99.924 37.219,102.272 37.421,102.489 37.809 C 102.620 38.042,102.720 38.053,103.169 37.884 C 103.838 37.631,106.494 37.791,106.609 38.090 C 106.667 38.240,107.069 38.271,108.111 38.206 C 109.913 38.094,110.123 38.502,109.733 41.352 L 109.633 42.083 105.393 42.083 L 101.152 42.083 101.058 41.709 C 101.006 41.503,101.005 41.228,101.055 41.097 C 101.105 40.967,101.038 40.820,100.906 40.769 C 100.774 40.718,100.667 40.487,100.667 40.255 L 100.667 39.833 96.688 39.833 L 92.710 39.833 92.596 40.842 C 92.523 41.485,92.394 41.884,92.241 41.943 C 91.952 42.054,91.931 42.394,92.189 42.807 C 92.459 43.239,92.219 45.990,91.901 46.112 C 91.633 46.215,91.583 46.929,91.833 47.083 C 91.925 47.140,92.003 47.313,92.006 47.468 C 92.010 47.623,92.460 48.228,93.006 48.811 C 93.553 49.395,94.000 49.939,94.000 50.019 C 94.000 50.252,97.565 50.202,97.800 49.966 C 98.055 49.712,103.252 49.530,110.724 49.513 C 116.473 49.499,116.965 49.433,117.306 48.631 C 117.336 48.559,117.467 48.500,117.597 48.500 C 117.727 48.500,117.834 48.444,117.834 48.375 C 117.834 48.306,118.048 48.107,118.310 47.931 C 118.783 47.615,118.786 47.600,118.882 45.437 C 118.958 43.736,119.036 43.219,119.239 43.070 C 119.534 42.855,119.617 41.167,119.333 41.167 C 119.231 41.167,119.167 40.367,119.167 39.102 L 119.167 37.038 118.402 35.561 C 117.684 34.174,116.976 32.832,116.883 32.685 C 116.860 32.649,116.725 32.716,116.583 32.834 C 116.206 33.147,113.330 32.948,113.069 32.592 C 112.847 32.289,112.403 32.252,112.236 32.523 C 112.048 32.827,108.971 32.565,108.715 32.223 C 108.542 31.993,108.407 31.981,107.798 32.141 C 106.929 32.370,104.307 32.170,104.205 31.866 C 104.158 31.723,103.815 31.697,102.990 31.774 C 102.015 31.864,101.825 31.839,101.736 31.607 C 101.580 31.201,101.803 30.500,102.087 30.500 C 102.367 30.500,102.417 30.238,102.167 30.083 C 101.945 29.946,101.956 29.343,102.192 28.667 L 102.383 28.117 104.679 28.222 C 106.420 28.301,106.991 28.277,107.043 28.122 C 107.088 27.987,107.502 27.917,108.264 27.917 L 109.416 27.917 109.810 28.750 C 110.027 29.208,110.273 29.718,110.358 29.882 C 110.442 30.046,110.470 30.247,110.420 30.328 C 110.288 30.542,110.720 30.634,112.476 30.764 C 113.720 30.856,114.064 30.832,114.178 30.648 C 114.279 30.485,114.780 30.400,115.885 30.360 C 117.412 30.304,117.466 30.289,118.153 29.693 L 118.857 29.083 118.904 27.083 C 118.931 25.983,119.011 24.829,119.082 24.518 C 119.175 24.112,119.158 23.986,119.022 24.070 C 118.794 24.211,118.500 23.515,118.500 22.835 C 118.500 22.335,117.817 21.833,117.136 21.833 C 116.964 21.833,116.784 21.732,116.736 21.608 C 116.685 21.474,116.492 21.413,116.261 21.457 C 116.047 21.498,115.822 21.449,115.760 21.349 C 115.686 21.230,114.783 21.167,113.167 21.167 C 111.693 21.167,110.645 21.099,110.583 21.000 C 110.410 20.719,108.159 20.786,108.267 21.068 M161.333 21.000 C 161.187 21.095,159.102 21.163,156.306 21.164 L 151.528 21.167 151.307 21.667 C 151.185 21.942,151.043 22.167,150.990 22.167 C 150.938 22.167,150.793 22.429,150.667 22.750 C 150.541 23.071,150.386 23.333,150.322 23.333 C 150.070 23.333,149.929 24.185,149.799 26.500 C 149.573 30.493,149.479 36.607,149.647 36.351 C 149.857 36.031,149.971 37.943,150.071 43.463 C 150.157 48.211,150.204 48.500,150.905 48.500 C 151.049 48.500,151.167 48.575,151.167 48.667 C 151.167 48.758,151.310 48.833,151.486 48.833 C 151.662 48.833,151.831 48.893,151.861 48.966 C 152.153 49.664,153.236 49.765,159.167 49.650 C 162.329 49.588,167.255 49.529,170.114 49.519 L 175.311 49.500 175.626 49.042 C 175.799 48.790,176.070 48.302,176.228 47.958 C 176.386 47.615,176.592 47.333,176.684 47.333 C 176.777 47.333,176.805 47.255,176.745 47.159 C 176.686 47.064,176.738 46.865,176.861 46.717 C 177.026 46.518,177.107 45.445,177.176 42.546 C 177.243 39.709,177.325 38.608,177.475 38.515 C 177.633 38.418,177.660 37.643,177.589 35.236 C 177.538 33.502,177.457 30.361,177.409 28.256 C 177.361 26.151,177.264 24.389,177.194 24.339 C 177.124 24.290,176.886 23.988,176.664 23.667 C 176.442 23.346,176.164 22.983,176.045 22.861 C 175.926 22.738,175.633 22.382,175.394 22.069 L 174.960 21.500 171.355 21.499 C 166.729 21.498,164.929 21.369,165.187 21.059 C 165.415 20.784,161.753 20.729,161.333 21.000 M184.583 21.000 C 184.400 21.079,183.261 21.149,182.053 21.155 L 179.855 21.167 179.760 22.875 C 179.559 26.466,179.495 30.245,179.639 30.029 C 179.920 29.605,179.995 31.225,180.108 40.208 L 180.221 49.167 181.735 49.176 C 183.538 49.188,184.599 49.361,184.542 49.635 C 184.488 49.891,185.697 49.903,185.950 49.650 C 186.072 49.528,186.875 49.486,188.323 49.525 L 190.512 49.583 190.464 39.518 L 190.417 29.453 192.583 29.561 C 194.216 29.642,194.796 29.731,194.935 29.918 C 195.037 30.055,195.281 30.167,195.477 30.167 C 195.673 30.167,195.833 30.239,195.833 30.328 C 195.833 30.417,195.943 30.448,196.076 30.396 C 196.411 30.268,196.554 30.929,196.471 32.227 C 196.426 32.945,196.472 33.343,196.619 33.479 C 196.737 33.590,196.833 33.892,196.833 34.152 C 196.833 34.412,196.878 34.849,196.933 35.122 L 197.032 35.618 199.386 35.712 C 200.852 35.770,201.763 35.873,201.801 35.986 C 201.837 36.095,202.370 36.167,203.147 36.167 L 204.433 36.167 204.648 35.572 C 204.766 35.246,204.969 34.938,205.098 34.888 C 205.227 34.838,205.333 34.704,205.333 34.590 C 205.333 34.476,205.506 34.195,205.718 33.967 L 206.102 33.553 206.029 29.083 L 205.957 24.613 205.375 23.848 C 205.055 23.428,204.742 23.046,204.680 23.000 C 204.618 22.954,204.387 22.654,204.167 22.333 C 203.946 22.012,203.687 21.695,203.591 21.628 C 203.495 21.560,199.967 21.506,195.750 21.506 L 188.083 21.507 187.585 22.087 C 186.932 22.847,186.466 22.845,186.167 22.083 C 186.041 21.762,185.877 21.500,185.802 21.500 C 185.728 21.500,185.667 21.350,185.667 21.167 C 185.667 20.806,185.202 20.734,184.583 21.000 M241.646 21.058 C 241.923 21.393,239.488 21.500,231.516 21.503 C 224.273 21.505,224.507 21.480,224.154 22.292 C 224.025 22.590,223.876 22.833,223.824 22.833 C 223.772 22.833,223.626 23.096,223.500 23.417 C 223.374 23.738,223.219 24.000,223.155 24.000 C 223.091 24.000,222.995 24.131,222.941 24.292 C 222.887 24.452,222.692 24.843,222.507 25.159 C 222.240 25.619,222.192 25.909,222.273 26.595 C 222.339 27.154,222.308 27.496,222.187 27.571 C 221.926 27.732,221.953 28.000,222.231 28.000 C 222.364 28.000,222.510 28.249,222.572 28.583 L 222.682 29.167 223.799 29.168 C 225.526 29.170,226.667 29.345,226.667 29.607 C 226.667 29.884,227.595 29.917,227.763 29.646 C 227.842 29.518,228.429 29.483,229.600 29.535 C 231.319 29.611,231.667 29.527,231.667 29.034 C 231.667 28.186,233.322 27.343,233.594 28.052 C 233.660 28.222,234.198 28.254,236.057 28.198 C 238.119 28.136,238.473 28.164,238.714 28.405 C 238.867 28.558,239.125 28.661,239.288 28.633 C 239.641 28.574,239.672 29.624,239.323 29.840 C 239.175 29.931,239.148 30.268,239.228 31.048 L 239.339 32.129 235.068 32.252 C 232.054 32.339,230.613 32.320,230.171 32.188 C 229.143 31.880,226.341 31.947,225.660 32.295 C 225.061 32.602,223.479 33.649,223.333 33.834 C 223.287 33.893,223.130 33.985,222.984 34.039 C 222.780 34.114,222.694 34.481,222.613 35.629 C 222.499 37.237,222.384 37.718,222.149 37.573 C 222.067 37.522,222.000 37.705,222.000 37.980 C 222.000 38.255,222.085 38.533,222.189 38.597 C 222.468 38.769,222.220 42.331,221.905 42.679 C 221.629 42.985,221.587 43.764,221.838 43.920 C 221.947 43.987,221.974 44.554,221.912 45.471 C 221.801 47.110,221.768 47.036,223.000 47.917 C 223.504 48.277,223.954 48.616,224.000 48.669 C 224.672 49.450,224.865 49.478,230.559 49.628 C 234.360 49.729,236.065 49.832,236.203 49.969 C 236.526 50.293,241.000 50.242,241.000 49.914 C 241.000 49.623,241.294 49.073,241.694 48.618 C 241.979 48.292,242.667 48.346,242.667 48.694 C 242.667 49.722,243.168 49.848,248.292 50.102 L 250.167 50.195 250.167 49.195 C 250.167 48.577,250.092 48.169,249.971 48.129 C 249.558 47.992,249.390 29.867,249.752 24.542 C 249.847 23.150,249.829 23.000,249.568 23.000 C 249.299 23.000,247.853 22.244,247.667 22.006 C 247.621 21.947,247.302 21.768,246.958 21.608 C 246.615 21.449,246.333 21.209,246.333 21.076 C 246.333 20.875,245.916 20.833,243.896 20.833 C 241.871 20.833,241.491 20.871,241.646 21.058 M294.167 21.000 C 294.021 21.094,291.940 21.164,289.167 21.167 L 284.417 21.173 283.875 22.001 C 283.577 22.457,283.333 22.875,283.333 22.931 C 283.333 22.986,283.185 23.240,283.004 23.495 C 282.692 23.933,282.669 24.324,282.590 30.771 C 282.543 34.518,282.471 39.308,282.428 41.417 C 282.385 43.525,282.409 45.103,282.481 44.924 C 282.653 44.495,282.829 45.501,282.831 46.933 C 282.834 48.147,282.876 48.193,284.833 49.107 L 286.250 49.768 291.917 49.652 C 295.033 49.589,299.932 49.529,302.804 49.519 C 308.273 49.499,308.500 49.469,308.500 48.762 C 308.500 48.618,308.557 48.500,308.626 48.500 C 308.695 48.500,308.857 48.256,308.985 47.958 C 309.114 47.660,309.355 47.220,309.522 46.981 C 309.798 46.582,309.837 45.867,309.970 38.739 C 310.075 33.112,310.170 30.916,310.308 30.870 C 310.610 30.769,310.577 24.500,310.275 24.500 C 310.151 24.500,309.870 24.261,309.650 23.968 C 309.430 23.675,308.891 23.000,308.452 22.468 L 307.655 21.500 304.119 21.499 C 299.560 21.498,297.764 21.368,298.020 21.059 C 298.248 20.784,294.587 20.729,294.167 21.000 M317.417 21.000 C 317.233 21.079,316.093 21.149,314.882 21.155 L 312.681 21.167 312.592 26.042 C 312.543 28.723,312.464 32.154,312.416 33.667 C 312.366 35.252,312.390 36.323,312.474 36.195 C 312.738 35.793,312.826 37.113,312.941 43.208 L 313.054 49.167 314.420 49.167 C 316.287 49.167,317.333 49.325,317.333 49.606 C 317.333 49.876,318.588 49.929,318.750 49.667 C 318.809 49.571,319.696 49.500,320.843 49.500 L 322.833 49.500 322.833 39.687 C 322.833 31.071,322.865 29.848,323.089 29.662 C 323.496 29.324,327.511 29.576,327.796 29.957 C 327.974 30.196,328.062 30.208,328.344 30.032 C 328.819 29.735,329.027 29.936,328.908 30.573 C 328.834 30.966,328.872 31.146,329.044 31.212 C 329.378 31.340,329.566 33.229,329.290 33.681 C 329.116 33.965,329.130 34.045,329.375 34.184 C 329.539 34.277,329.668 34.548,329.669 34.800 C 329.674 35.568,329.803 35.615,332.140 35.708 C 333.431 35.759,334.440 35.873,334.548 35.981 C 334.659 36.092,335.339 36.161,336.242 36.154 C 337.071 36.146,337.656 36.103,337.542 36.056 C 337.185 35.913,337.992 34.167,338.415 34.166 C 338.512 34.166,338.607 33.511,338.640 32.625 C 338.700 30.991,338.755 30.779,339.012 31.171 C 339.117 31.332,339.146 30.642,339.096 29.167 C 338.957 25.123,338.844 24.580,337.922 23.559 C 337.827 23.455,337.420 22.948,337.017 22.434 L 336.284 21.500 328.619 21.500 L 320.954 21.500 320.187 22.207 C 319.568 22.777,319.410 22.858,319.365 22.623 C 319.334 22.464,319.245 22.333,319.167 22.333 C 318.998 22.333,318.500 21.380,318.500 21.058 C 318.500 20.808,317.933 20.778,317.417 21.000 M389.146 21.058 C 389.423 21.393,386.988 21.500,379.016 21.503 C 371.773 21.505,372.007 21.480,371.654 22.292 C 371.525 22.590,371.376 22.833,371.324 22.833 C 371.272 22.833,371.126 23.096,371.000 23.417 C 370.874 23.738,370.719 24.000,370.655 24.000 C 370.591 24.000,370.495 24.131,370.441 24.292 C 370.387 24.452,370.192 24.843,370.007 25.159 C 369.740 25.619,369.692 25.909,369.773 26.595 C 369.839 27.154,369.808 27.496,369.687 27.571 C 369.426 27.732,369.453 28.000,369.731 28.000 C 369.864 28.000,370.010 28.249,370.072 28.583 L 370.182 29.167 371.299 29.168 C 373.026 29.170,374.167 29.345,374.167 29.607 C 374.167 29.884,375.095 29.917,375.263 29.646 C 375.342 29.518,375.929 29.483,377.100 29.535 C 378.819 29.611,379.167 29.527,379.167 29.034 C 379.167 28.186,380.822 27.343,381.094 28.052 C 381.160 28.222,381.698 28.254,383.557 28.198 C 385.619 28.136,385.973 28.164,386.214 28.405 C 386.367 28.558,386.625 28.661,386.788 28.633 C 387.141 28.574,387.172 29.624,386.823 29.840 C 386.675 29.931,386.648 30.268,386.728 31.048 L 386.839 32.129 382.568 32.252 C 379.554 32.339,378.113 32.320,377.671 32.188 C 376.643 31.880,373.841 31.947,373.160 32.295 C 372.561 32.602,370.979 33.649,370.833 33.834 C 370.787 33.893,370.630 33.985,370.484 34.039 C 370.280 34.114,370.194 34.481,370.113 35.629 C 369.999 37.237,369.884 37.718,369.649 37.573 C 369.567 37.522,369.500 37.705,369.500 37.980 C 369.500 38.255,369.585 38.533,369.689 38.597 C 369.968 38.769,369.720 42.331,369.405 42.679 C 369.129 42.985,369.087 43.764,369.338 43.920 C 369.447 43.987,369.474 44.554,369.412 45.471 C 369.301 47.110,369.268 47.036,370.500 47.917 C 371.004 48.277,371.454 48.616,371.500 48.669 C 372.172 49.450,372.365 49.478,378.059 49.628 C 381.860 49.729,383.565 49.832,383.703 49.969 C 384.026 50.293,388.500 50.242,388.500 49.914 C 388.500 49.623,388.794 49.073,389.194 48.618 C 389.479 48.292,390.167 48.346,390.167 48.694 C 390.167 49.722,390.668 49.848,395.792 50.102 L 397.667 50.195 397.667 49.195 C 397.667 48.577,397.592 48.169,397.471 48.129 C 397.058 47.992,396.890 29.867,397.252 24.542 C 397.347 23.150,397.329 23.000,397.068 23.000 C 396.799 23.000,395.353 22.244,395.167 22.006 C 395.121 21.947,394.802 21.768,394.458 21.608 C 394.115 21.449,393.833 21.209,393.833 21.076 C 393.833 20.875,393.416 20.833,391.396 20.833 C 389.371 20.833,388.991 20.871,389.146 21.058 M78.833 23.200 C 78.833 25.073,78.664 25.648,78.451 24.500 C 78.408 24.271,78.402 26.183,78.437 28.750 C 78.473 31.317,78.541 37.054,78.588 41.500 L 78.675 49.583 80.838 49.532 C 82.276 49.499,83.000 49.540,83.000 49.657 C 83.000 49.755,83.335 49.833,83.750 49.833 C 84.244 49.833,84.486 49.765,84.458 49.634 C 84.403 49.368,85.160 49.210,86.606 49.186 L 87.796 49.167 87.906 48.583 C 87.966 48.262,88.070 48.000,88.137 48.000 C 88.204 48.000,88.257 46.338,88.255 44.306 C 88.251 41.614,88.303 40.594,88.447 40.546 C 88.592 40.497,88.618 39.779,88.548 37.782 C 88.434 34.584,88.577 32.763,88.931 32.899 C 89.225 33.012,89.269 31.669,88.980 31.380 C 88.635 31.035,88.861 25.680,89.232 25.409 C 89.481 25.227,89.516 25.055,89.424 24.468 C 89.362 24.073,89.273 23.169,89.226 22.458 L 89.141 21.167 83.987 21.167 L 78.833 21.167 78.833 23.200 M208.635 33.218 C 208.565 44.416,208.491 46.277,208.150 45.406 C 208.080 45.228,208.018 46.077,208.012 47.292 L 208.000 49.500 210.407 49.500 C 211.832 49.500,212.856 49.568,212.917 49.667 C 213.079 49.929,214.026 49.861,214.238 49.572 C 214.379 49.379,214.853 49.286,216.048 49.214 C 216.938 49.161,217.671 49.072,217.676 49.017 C 217.682 48.962,217.745 47.879,217.816 46.610 C 217.888 45.341,218.018 44.253,218.105 44.193 C 218.196 44.129,218.260 42.554,218.256 40.431 C 218.252 37.769,218.303 36.761,218.447 36.713 C 218.592 36.664,218.618 35.946,218.548 33.948 C 218.434 30.751,218.577 28.930,218.931 29.066 C 219.112 29.135,219.167 28.984,219.167 28.411 C 219.167 28.002,219.092 27.667,219.000 27.667 C 218.804 27.667,218.786 23.269,218.978 22.250 C 219.049 21.873,219.190 21.601,219.302 21.625 C 219.411 21.648,219.500 21.554,219.500 21.417 C 219.500 21.200,218.790 21.167,214.106 21.167 L 208.711 21.167 208.635 33.218 M160.606 28.917 C 160.494 29.211,161.904 29.290,162.083 29.000 C 162.323 28.613,166.969 28.797,167.186 29.202 C 167.550 29.884,167.279 42.339,166.893 42.621 C 166.634 42.811,166.559 42.806,166.400 42.589 C 166.181 42.289,165.647 42.253,165.379 42.521 C 165.104 42.796,162.340 42.546,162.221 42.234 C 162.114 41.957,161.312 41.922,161.050 42.183 C 160.565 42.668,160.197 42.189,160.102 40.951 C 159.802 37.028,159.810 29.030,160.113 28.853 C 160.543 28.604,160.718 28.626,160.606 28.917 M293.273 28.917 C 293.160 29.211,294.737 29.291,294.917 29.000 C 295.107 28.691,299.598 28.788,299.918 29.108 C 300.188 29.379,300.176 38.743,299.901 41.440 C 299.799 42.446,299.431 43.108,299.244 42.625 C 299.118 42.301,298.418 42.228,298.238 42.520 C 298.052 42.820,295.137 42.548,294.874 42.206 C 294.693 41.971,294.586 41.962,294.088 42.142 C 292.855 42.588,292.893 42.761,292.755 36.040 C 292.633 30.086,292.721 28.667,293.211 28.667 C 293.298 28.667,293.326 28.779,293.273 28.917 M239.704 37.722 C 239.919 38.059,239.857 42.077,239.633 42.300 C 239.352 42.582,238.739 42.548,238.425 42.234 C 238.214 42.024,237.977 41.993,237.288 42.087 C 235.780 42.293,232.621 42.192,232.358 41.930 C 232.057 41.629,231.875 38.768,232.137 38.453 C 232.237 38.332,232.277 38.069,232.225 37.870 C 232.084 37.332,239.364 37.187,239.704 37.722 M387.204 37.722 C 387.419 38.059,387.357 42.077,387.133 42.300 C 386.852 42.582,386.239 42.548,385.925 42.234 C 385.714 42.024,385.477 41.993,384.788 42.087 C 383.280 42.293,380.121 42.192,379.858 41.930 C 379.557 41.629,379.375 38.768,379.637 38.453 C 379.737 38.332,379.777 38.069,379.725 37.870 C 379.584 37.332,386.864 37.187,387.204 37.722 " stroke="none" fill="#fcd435" fill-rule="evenodd"></path><path id="path1" d="M12.667 10.250 C 12.667 10.479,12.592 10.667,12.500 10.667 C 12.399 10.667,12.333 11.389,12.333 12.500 C 12.333 13.611,12.268 14.333,12.167 14.333 C 12.067 14.333,12.000 15.000,12.000 16.000 L 12.000 17.667 11.000 17.667 C 10.444 17.667,10.000 17.593,10.000 17.500 C 10.000 17.399,9.278 17.333,8.167 17.333 L 6.333 17.333 6.315 17.875 C 6.305 18.173,6.311 18.596,6.330 18.815 C 6.356 19.129,6.303 19.191,6.078 19.104 C 5.824 19.007,5.801 19.104,5.867 20.014 C 5.921 20.759,5.881 21.056,5.720 21.118 C 5.572 21.175,5.500 21.524,5.500 22.184 C 5.500 22.728,5.426 23.167,5.333 23.167 C 5.241 23.167,5.167 23.611,5.167 24.167 C 5.167 24.722,5.093 25.167,5.000 25.167 C 4.906 25.167,4.833 25.639,4.833 26.250 L 4.833 27.333 7.333 27.333 C 8.994 27.333,9.833 27.393,9.833 27.511 C 9.833 27.611,9.974 27.644,10.153 27.588 C 10.574 27.454,10.736 27.741,10.418 28.058 C 10.227 28.249,10.167 28.714,10.167 29.988 C 10.167 30.996,10.100 31.667,10.000 31.667 C 9.908 31.667,9.833 32.103,9.833 32.643 L 9.833 33.620 8.958 33.725 C 7.440 33.908,5.995 33.858,6.042 33.625 C 6.070 33.482,5.783 33.401,5.125 33.367 C 4.349 33.326,4.167 33.366,4.167 33.575 C 4.167 33.717,4.092 33.833,4.000 33.833 C 3.900 33.833,3.833 34.500,3.833 35.500 C 3.833 36.911,3.793 37.167,3.569 37.167 C 3.337 37.167,3.311 37.444,3.360 39.361 C 3.402 41.007,3.364 41.573,3.208 41.625 C 3.079 41.668,3.000 42.007,3.000 42.514 L 3.000 43.333 5.417 43.333 C 6.917 43.333,7.833 43.397,7.833 43.500 C 7.833 43.592,7.938 43.667,8.065 43.667 C 8.424 43.667,8.579 44.530,8.262 44.762 C 8.063 44.907,8.000 45.261,8.000 46.227 C 8.000 46.964,7.930 47.500,7.833 47.500 C 7.742 47.500,7.667 47.688,7.667 47.917 C 7.667 48.176,7.761 48.333,7.917 48.333 C 8.054 48.333,8.167 48.408,8.167 48.500 C 8.167 48.594,8.639 48.667,9.250 48.667 C 10.102 48.667,10.333 48.720,10.333 48.917 C 10.333 49.111,10.556 49.167,11.333 49.167 C 11.934 49.167,12.333 49.238,12.333 49.345 C 12.333 49.457,12.690 49.508,13.281 49.480 C 13.901 49.452,14.252 49.505,14.295 49.635 C 14.337 49.761,14.754 49.833,15.440 49.833 C 16.117 49.833,16.481 49.895,16.417 50.000 C 16.353 50.103,16.637 50.167,17.157 50.167 L 18.000 50.167 18.000 49.000 C 18.000 48.333,18.071 47.833,18.167 47.833 C 18.262 47.833,18.333 47.333,18.333 46.667 C 18.333 46.000,18.405 45.500,18.500 45.500 C 18.592 45.500,18.667 45.210,18.667 44.855 L 18.667 44.209 21.032 44.134 C 23.820 44.045,24.167 44.089,24.167 44.529 C 24.167 44.707,24.092 44.807,24.000 44.750 C 23.894 44.685,23.833 45.137,23.833 45.990 C 23.833 47.073,23.785 47.333,23.583 47.333 C 23.417 47.333,23.333 47.500,23.333 47.833 C 23.333 48.222,23.407 48.333,23.667 48.333 C 23.850 48.333,24.000 48.408,24.000 48.500 C 24.000 48.593,24.444 48.667,25.000 48.667 C 25.778 48.667,26.000 48.722,26.000 48.917 C 26.000 49.113,26.231 49.167,27.083 49.167 C 27.730 49.167,28.167 49.237,28.167 49.342 C 28.167 49.448,28.539 49.502,29.115 49.479 C 29.726 49.454,30.087 49.510,30.129 49.637 C 30.169 49.758,30.572 49.833,31.181 49.833 C 31.727 49.833,32.167 49.908,32.167 50.000 C 32.167 50.092,32.504 50.167,32.917 50.167 L 33.667 50.167 33.667 49.333 C 33.667 48.704,33.728 48.500,33.917 48.500 C 34.115 48.500,34.167 48.259,34.167 47.333 C 34.167 46.667,34.238 46.167,34.333 46.167 C 34.425 46.167,34.500 45.867,34.500 45.500 L 34.500 44.833 37.570 44.833 C 41.361 44.833,41.167 44.902,41.167 43.566 C 41.167 42.707,41.218 42.500,41.429 42.500 C 41.640 42.500,41.682 42.330,41.646 41.636 C 41.616 41.076,41.670 40.749,41.800 40.706 C 41.926 40.664,42.000 40.272,42.000 39.653 C 42.000 39.106,42.074 38.667,42.167 38.667 C 42.259 38.667,42.333 38.222,42.333 37.667 C 42.333 37.111,42.407 36.667,42.500 36.667 C 42.594 36.667,42.667 36.194,42.667 35.583 L 42.667 34.500 39.417 34.500 L 36.167 34.500 36.167 34.101 C 36.167 33.882,36.284 33.657,36.428 33.602 C 36.637 33.522,36.681 33.262,36.650 32.302 C 36.624 31.505,36.677 31.080,36.806 31.037 C 36.929 30.996,37.000 30.549,37.000 29.819 L 37.000 28.667 40.248 28.667 C 44.428 28.667,44.193 28.827,44.149 26.008 C 44.126 24.564,44.174 23.914,44.308 23.870 C 44.440 23.825,44.500 23.110,44.500 21.569 C 44.500 20.190,44.564 19.333,44.667 19.333 C 44.758 19.333,44.833 19.113,44.833 18.844 L 44.833 18.355 43.150 18.303 C 42.225 18.274,41.433 18.306,41.390 18.375 C 41.297 18.528,40.475 18.536,39.440 18.394 C 38.649 18.286,38.343 17.826,38.917 17.606 C 39.112 17.531,39.167 17.199,39.167 16.089 C 39.167 15.252,39.235 14.667,39.333 14.667 C 39.426 14.667,39.500 14.222,39.500 13.667 L 39.500 12.667 38.583 12.667 C 38.079 12.667,37.667 12.592,37.667 12.500 C 37.667 12.405,37.167 12.333,36.500 12.333 C 35.833 12.333,35.333 12.262,35.333 12.167 C 35.333 12.071,34.833 12.000,34.167 12.000 C 33.500 12.000,33.000 11.929,33.000 11.833 C 33.000 11.738,32.500 11.667,31.833 11.667 C 30.764 11.667,30.356 11.498,30.875 11.269 C 30.990 11.219,30.437 11.194,29.647 11.214 C 28.647 11.239,28.233 11.308,28.283 11.441 C 28.323 11.547,28.276 11.682,28.178 11.743 C 28.070 11.810,28.000 12.539,28.000 13.593 C 28.000 14.642,27.934 15.333,27.833 15.333 C 27.736 15.333,27.667 15.889,27.667 16.667 L 27.667 18.000 26.958 18.027 C 25.752 18.074,24.586 17.973,24.528 17.816 C 24.497 17.734,24.141 17.667,23.736 17.667 C 23.062 17.667,23.000 17.632,23.000 17.250 C 23.000 17.021,23.075 16.833,23.167 16.833 C 23.265 16.833,23.333 16.250,23.333 15.417 C 23.333 14.583,23.402 14.000,23.500 14.000 C 23.595 14.000,23.667 13.500,23.667 12.833 L 23.667 11.667 22.833 11.667 C 22.177 11.667,22.000 11.609,22.000 11.397 C 22.000 11.170,21.832 11.139,20.921 11.197 C 20.141 11.246,19.820 11.206,19.760 11.049 C 19.704 10.903,19.326 10.833,18.589 10.833 C 17.974 10.833,17.500 10.761,17.500 10.667 C 17.500 10.573,17.028 10.500,16.417 10.500 C 15.806 10.500,15.333 10.427,15.333 10.333 C 15.333 10.239,14.861 10.167,14.250 10.167 C 13.639 10.167,13.167 10.094,13.167 10.000 C 13.167 9.908,13.054 9.833,12.917 9.833 C 12.761 9.833,12.667 9.991,12.667 10.250 M26.333 28.417 C 26.333 28.691,26.240 28.833,26.061 28.833 C 25.822 28.833,25.798 29.028,25.870 30.408 C 25.935 31.638,25.903 32.001,25.726 32.069 C 25.570 32.129,25.500 32.468,25.500 33.161 L 25.500 34.167 23.083 34.167 C 20.895 34.167,19.895 33.972,21.125 33.786 C 21.552 33.721,21.546 33.715,21.042 33.692 C 20.552 33.669,20.194 33.167,20.667 33.167 C 20.764 33.167,20.833 32.611,20.833 31.833 C 20.833 31.056,20.903 30.500,21.000 30.500 C 21.096 30.500,21.167 29.972,21.167 29.250 L 21.167 28.000 23.750 28.000 L 26.333 28.000 26.333 28.417 " stroke="none" fill="#66c2f0" fill-rule="evenodd"></path><path id="path2" d="" stroke="none" fill="#100d864" fill-rule="evenodd"></path><path id="path3" d="" stroke="none" fill="#100d864" fill-rule="evenodd"></path><path id="path4" d="" stroke="none" fill="#100d864" fill-rule="evenodd"></path></g></svg>