<svg id="svg" version="1.1" xmlns="http://www.w3.org/2000/svg" xmlns:xlink="http://www.w3.org/1999/xlink" width="400" height="400" viewBox="0, 0, 400,400"><g id="svgg"><path id="path0" d="M42.170 133.235 C 42.108 133.444,41.448 139.839,40.703 147.444 C 39.958 155.050,39.297 161.320,39.234 161.376 C 39.171 161.433,34.552 161.353,28.970 161.197 C 23.388 161.041,18.795 160.945,18.764 160.982 C 18.661 161.107,12.573 195.921,12.643 195.990 C 12.680 196.027,17.433 196.244,23.205 196.471 C 28.978 196.698,33.830 196.998,33.988 197.138 C 34.147 197.278,33.690 202.986,32.972 209.823 L 31.668 222.254 22.185 222.037 C 16.969 221.918,11.983 221.736,11.106 221.634 C 9.107 221.400,9.438 219.572,7.971 238.950 C 7.308 247.705,6.699 255.270,6.617 255.761 C 6.439 256.827,7.127 256.910,19.221 257.281 L 26.418 257.502 26.408 258.556 C 26.402 259.136,25.901 263.312,25.294 267.835 C 24.197 276.009,24.195 276.061,24.881 276.209 C 26.480 276.554,60.125 282.386,60.192 282.330 C 60.232 282.297,61.047 277.171,62.002 270.940 C 62.957 264.709,63.838 259.516,63.961 259.401 C 64.204 259.171,85.060 260.053,85.311 260.304 C 85.396 260.389,84.975 263.905,84.374 268.117 C 83.774 272.329,83.372 275.864,83.480 275.973 C 83.666 276.158,119.647 282.459,119.800 282.332 C 119.839 282.300,120.577 277.708,121.438 272.128 C 122.300 266.547,123.044 261.942,123.091 261.895 C 123.138 261.847,128.574 262.027,135.170 262.295 C 141.766 262.564,147.252 262.679,147.359 262.552 C 147.656 262.200,154.258 225.610,154.060 225.412 C 153.965 225.317,148.508 225.093,141.933 224.914 C 135.358 224.735,129.904 224.513,129.812 224.421 C 129.644 224.253,132.641 201.200,132.860 200.981 C 132.925 200.916,138.647 201.127,145.575 201.449 L 158.171 202.036 158.329 201.018 C 158.678 198.759,161.236 164.848,161.069 164.682 C 160.970 164.583,156.050 164.362,150.136 164.191 C 144.221 164.020,139.337 163.836,139.283 163.782 C 139.228 163.727,139.723 159.142,140.382 153.591 C 141.041 148.040,141.534 143.453,141.478 143.397 C 141.306 143.226,101.572 137.094,101.462 137.222 C 101.354 137.346,98.880 161.716,98.892 162.528 C 98.899 162.967,81.883 162.831,80.254 162.378 C 79.791 162.250,79.899 160.861,81.149 150.803 C 81.931 144.517,82.548 139.358,82.522 139.340 C 82.495 139.321,74.623 138.047,65.030 136.507 C 55.436 134.967,46.393 133.516,44.935 133.281 C 42.990 132.968,42.253 132.956,42.170 133.235 M86.474 199.135 C 90.165 199.293,93.256 199.494,93.343 199.580 C 93.429 199.667,92.925 205.115,92.222 211.687 L 90.944 223.637 80.785 223.394 C 75.197 223.260,70.565 223.091,70.492 223.018 C 70.377 222.903,72.220 208.231,73.225 201.270 L 73.579 198.815 76.671 198.830 C 78.372 198.839,82.783 198.976,86.474 199.135 " stroke="none" fill="#3cb4fb" fill-rule="evenodd"></path><path id="path1" d="M191.194 21.032 C 112.235 24.720,42.595 79.889,20.657 156.130 C 19.935 158.640,19.373 160.718,19.409 160.749 C 19.992 161.248,39.289 161.206,39.289 160.706 C 39.289 159.521,42.025 132.968,42.161 132.832 C 42.332 132.661,82.298 139.086,82.535 139.323 C 82.627 139.415,82.078 144.556,81.314 150.747 C 80.550 156.937,79.978 162.055,80.042 162.119 C 80.200 162.277,98.359 162.867,98.519 162.719 C 98.589 162.654,99.235 156.856,99.955 149.833 C 100.675 142.811,101.303 137.030,101.352 136.986 C 101.821 136.563,141.418 143.212,141.518 143.731 C 141.582 144.061,141.142 148.499,140.541 153.594 C 139.940 158.688,139.532 163.074,139.634 163.340 C 139.787 163.737,141.711 163.867,150.435 164.065 C 156.273 164.199,161.138 164.413,161.246 164.542 C 161.427 164.757,158.558 201.902,158.343 202.135 C 158.290 202.192,153.410 202.001,147.497 201.712 C 141.584 201.422,135.882 201.185,134.825 201.185 L 132.904 201.185 131.341 212.786 C 130.482 219.166,129.803 224.410,129.834 224.439 C 129.865 224.469,135.343 224.605,142.008 224.741 C 148.673 224.878,154.193 225.099,154.276 225.233 C 154.427 225.477,147.719 262.544,147.478 262.791 C 147.408 262.864,142.812 262.749,137.265 262.535 C 131.718 262.321,126.266 262.147,125.148 262.148 L 123.116 262.151 121.608 272.180 C 120.778 277.695,119.936 282.271,119.736 282.347 C 119.417 282.470,84.400 276.568,83.463 276.234 C 83.215 276.145,83.446 273.619,84.182 268.365 C 84.779 264.109,85.172 260.534,85.055 260.421 C 84.647 260.026,64.267 259.370,64.035 259.745 C 63.915 259.939,63.075 265.018,62.169 271.031 C 61.262 277.044,60.409 282.092,60.273 282.248 C 60.137 282.404,52.579 281.222,43.476 279.622 C 25.713 276.501,26.080 276.555,26.080 277.037 C 26.080 278.580,35.328 297.648,39.311 304.318 C 113.719 428.918,293.965 426.754,365.206 300.405 C 368.615 294.358,374.158 282.935,373.837 282.615 C 373.787 282.565,357.820 282.632,338.355 282.764 L 302.964 283.004 296.650 279.622 L 290.337 276.240 290.137 266.062 C 290.027 260.465,289.777 230.974,289.581 200.527 L 289.225 145.170 292.030 138.973 L 294.835 132.776 303.980 132.807 C 309.009 132.824,326.613 133.015,343.099 133.232 C 359.585 133.448,373.139 133.584,373.218 133.533 C 373.649 133.255,368.635 123.062,364.254 115.307 C 346.505 83.892,318.413 57.285,285.697 40.901 C 255.659 25.858,225.157 19.445,191.194 21.032 M256.562 133.262 C 262.337 133.715,270.377 134.354,274.428 134.682 L 281.795 135.278 281.795 138.003 C 281.794 139.502,280.881 171.820,279.764 209.822 C 278.648 247.824,277.733 279.739,277.733 280.746 L 277.731 282.575 272.396 282.350 C 261.108 281.874,237.929 280.701,237.820 280.600 C 237.757 280.542,238.039 268.050,238.446 252.841 C 238.853 237.631,239.104 225.105,239.005 225.005 C 238.824 224.824,213.639 223.886,213.444 224.053 C 213.387 224.102,212.894 236.162,212.350 250.852 C 211.805 265.542,211.318 278.019,211.268 278.577 L 211.177 279.594 191.702 280.830 C 180.991 281.511,172.162 282.004,172.082 281.927 C 171.902 281.754,172.660 162.708,172.953 145.216 L 173.167 132.430 195.000 132.430 L 216.832 132.430 216.621 136.240 C 216.192 143.985,214.695 187.727,214.846 188.120 C 214.995 188.507,239.640 189.600,240.005 189.236 C 240.082 189.159,240.463 176.460,240.851 161.017 C 241.239 145.574,241.620 132.730,241.697 132.476 C 241.806 132.119,242.319 132.062,243.950 132.226 C 245.112 132.343,250.787 132.809,256.562 133.262 M328.885 165.538 C 328.894 168.349,330.506 254.805,330.551 254.904 C 330.560 254.923,332.130 255.041,334.039 255.165 C 335.948 255.290,341.466 255.688,346.300 256.050 C 351.134 256.412,355.135 256.663,355.190 256.608 C 355.246 256.552,355.984 252.029,356.830 246.557 C 357.676 241.085,358.431 236.545,358.508 236.468 C 358.585 236.391,364.942 236.768,372.635 237.306 L 386.622 238.283 386.855 237.431 C 389.250 228.678,389.755 192.809,387.591 185.182 C 387.434 184.629,386.441 184.589,372.901 184.589 C 363.859 184.589,358.304 184.465,358.177 184.260 C 358.065 184.079,357.289 179.324,356.452 173.693 C 355.616 168.062,354.875 163.399,354.806 163.330 C 354.654 163.177,334.754 162.257,331.329 162.244 L 328.874 162.235 328.885 165.538 M13.366 199.014 C 13.077 202.493,13.295 221.028,13.629 221.363 C 13.842 221.576,31.179 222.215,31.421 222.019 C 31.526 221.934,34.165 197.325,34.081 197.227 C 34.050 197.193,30.142 197.000,25.395 196.800 C 20.649 196.600,16.053 196.385,15.183 196.323 L 13.600 196.209 13.366 199.014 M73.689 199.205 C 73.469 199.871,70.516 222.672,70.633 222.806 C 70.786 222.981,90.468 223.616,90.633 223.451 C 90.713 223.371,91.310 218.366,91.958 212.330 C 92.606 206.294,93.207 200.952,93.293 200.459 L 93.449 199.563 87.453 199.354 C 84.155 199.238,79.743 199.055,77.648 198.946 C 74.621 198.789,73.809 198.842,73.689 199.205 M19.774 258.286 C 20.251 260.326,24.176 272.312,24.368 272.312 C 24.580 272.312,26.478 258.033,26.291 257.846 C 26.230 257.786,24.688 257.638,22.862 257.518 L 19.544 257.300 19.774 258.286 " stroke="none" fill="#fbfbf3" fill-rule="evenodd"></path><path id="path2" d="M173.258 132.854 C 173.063 133.472,172.031 281.543,172.220 281.732 C 172.433 281.945,210.701 279.505,210.944 279.262 C 211.048 279.158,211.584 266.692,212.135 251.560 C 212.686 236.428,213.182 223.993,213.237 223.927 C 213.413 223.715,238.942 224.620,239.155 224.846 C 239.267 224.966,239.026 237.485,238.619 252.667 C 238.212 267.849,237.929 280.334,237.989 280.410 C 238.183 280.655,277.114 282.504,277.351 282.280 C 277.514 282.127,281.811 135.721,281.658 135.567 C 281.539 135.448,263.433 133.920,250.051 132.900 C 245.724 132.571,242.099 132.386,241.995 132.489 C 241.892 132.593,241.483 145.387,241.087 160.920 C 240.692 176.453,240.278 189.257,240.167 189.374 C 239.997 189.555,214.674 188.741,214.536 188.551 C 214.510 188.514,214.917 177.130,215.442 163.251 C 215.967 149.373,216.403 136.761,216.411 135.224 L 216.427 132.430 194.909 132.430 C 177.991 132.430,173.363 132.521,173.258 132.854 M294.706 133.488 C 294.533 133.931,293.295 136.655,291.956 139.543 L 289.521 144.793 289.770 190.008 C 289.907 214.877,290.112 244.427,290.226 255.674 L 290.432 276.124 296.528 279.464 L 302.625 282.804 339.204 282.631 C 359.323 282.536,378.408 282.369,381.616 282.260 L 387.449 282.062 390.876 275.456 L 394.302 268.851 393.812 253.977 C 393.543 245.796,393.263 239.051,393.190 238.987 C 393.078 238.890,363.987 236.843,359.884 236.644 L 358.549 236.579 357.001 246.571 L 355.452 256.562 354.568 256.665 C 353.746 256.761,330.507 255.107,330.373 254.943 C 330.288 254.839,328.610 162.085,328.691 161.983 C 328.860 161.773,354.804 163.053,354.957 163.279 C 355.051 163.420,355.810 168.196,356.643 173.893 L 358.157 184.251 375.861 184.251 C 390.709 184.251,393.565 184.175,393.565 183.782 C 393.565 183.524,394.093 175.180,394.739 165.238 C 395.384 155.297,395.956 146.395,396.009 145.455 L 396.105 143.746 390.517 138.822 L 384.928 133.898 348.010 133.500 C 327.705 133.281,307.476 133.007,303.056 132.892 L 295.020 132.683 294.706 133.488 " stroke="none" fill="#fbd434" fill-rule="evenodd"></path><path id="path3" d="M241.634 132.545 C 241.538 132.794,241.512 134.204,241.576 135.678 L 241.693 138.357 241.761 135.414 L 241.829 132.471 243.099 132.338 L 244.369 132.205 243.088 132.148 C 242.287 132.113,241.743 132.261,241.634 132.545 M216.532 134.293 C 216.534 135.411,216.597 135.827,216.672 135.218 C 216.748 134.610,216.746 133.695,216.669 133.186 C 216.591 132.677,216.530 133.175,216.532 134.293 M246.655 132.664 C 246.981 132.749,247.515 132.749,247.841 132.664 C 248.167 132.578,247.900 132.509,247.248 132.509 C 246.596 132.509,246.329 132.578,246.655 132.664 M251.058 133.002 C 251.384 133.088,251.918 133.088,252.244 133.002 C 252.570 132.917,252.303 132.847,251.651 132.847 C 250.999 132.847,250.732 132.917,251.058 133.002 M306.943 133.022 C 308.946 133.081,312.223 133.081,314.225 133.022 C 316.228 132.962,314.589 132.913,310.584 132.913 C 306.579 132.913,304.941 132.962,306.943 133.022 M255.123 133.341 C 255.449 133.426,255.982 133.426,256.308 133.341 C 256.634 133.256,256.367 133.186,255.715 133.186 C 255.064 133.186,254.797 133.256,255.123 133.341 M335.581 133.360 C 337.500 133.421,340.549 133.421,342.355 133.360 C 344.161 133.299,342.591 133.250,338.865 133.250 C 335.140 133.250,333.662 133.300,335.581 133.360 M259.865 133.680 C 260.191 133.765,260.724 133.765,261.050 133.680 C 261.376 133.595,261.109 133.525,260.457 133.525 C 259.805 133.525,259.539 133.595,259.865 133.680 M362.320 133.699 C 364.229 133.759,367.354 133.759,369.263 133.699 C 371.173 133.638,369.610 133.589,365.792 133.589 C 361.973 133.589,360.411 133.638,362.320 133.699 M373.840 133.686 C 374.261 133.767,374.871 133.764,375.194 133.679 C 375.518 133.594,375.174 133.528,374.428 133.532 C 373.683 133.535,373.418 133.605,373.840 133.686 M263.929 134.018 C 264.255 134.104,264.788 134.104,265.114 134.018 C 265.440 133.933,265.174 133.864,264.522 133.864 C 263.870 133.864,263.603 133.933,263.929 134.018 M267.993 134.357 C 268.319 134.442,268.853 134.442,269.179 134.357 C 269.505 134.272,269.238 134.202,268.586 134.202 C 267.934 134.202,267.667 134.272,267.993 134.357 M272.058 134.696 C 272.384 134.781,272.917 134.781,273.243 134.696 C 273.569 134.611,273.302 134.541,272.650 134.541 C 271.998 134.541,271.732 134.611,272.058 134.696 M276.122 135.034 C 276.448 135.120,276.981 135.120,277.307 135.034 C 277.633 134.949,277.367 134.880,276.715 134.880 C 276.063 134.880,275.796 134.949,276.122 135.034 M388.146 136.600 C 388.146 136.659,388.641 137.154,389.246 137.701 L 390.347 138.696 389.352 137.595 C 388.425 136.569,388.146 136.339,388.146 136.600 M281.577 143.438 C 281.576 145.114,281.633 145.843,281.704 145.057 C 281.775 144.271,281.776 142.899,281.706 142.009 C 281.636 141.118,281.578 141.761,281.577 143.438 M216.199 143.099 C 216.201 144.403,216.262 144.895,216.335 144.192 C 216.409 143.490,216.407 142.423,216.333 141.821 C 216.258 141.220,216.198 141.795,216.199 143.099 M241.275 147.841 C 241.276 149.704,241.333 150.422,241.402 149.438 C 241.470 148.454,241.470 146.930,241.400 146.051 C 241.331 145.173,241.274 145.978,241.275 147.841 M289.400 156.986 C 289.400 163.878,289.445 166.650,289.500 163.145 C 289.555 159.640,289.555 154.000,289.500 150.613 C 289.445 147.225,289.400 150.093,289.400 156.986 M396.028 145.978 C 396.028 146.816,396.094 147.159,396.175 146.740 C 396.255 146.321,396.255 145.635,396.175 145.216 C 396.094 144.797,396.028 145.140,396.028 145.978 M172.887 157.663 C 172.887 163.997,172.933 166.540,172.989 163.314 C 173.044 160.089,173.044 154.907,172.988 151.799 C 172.932 148.690,172.887 151.329,172.887 157.663 M395.694 151.228 C 395.696 152.159,395.762 152.500,395.840 151.985 C 395.918 151.470,395.916 150.708,395.835 150.292 C 395.755 149.875,395.691 150.296,395.694 151.228 M215.861 152.244 C 215.862 153.548,215.923 154.040,215.997 153.337 C 216.070 152.634,216.069 151.567,215.994 150.966 C 215.919 150.365,215.859 150.940,215.861 152.244 M281.238 154.953 C 281.237 156.630,281.294 157.359,281.365 156.572 C 281.436 155.786,281.437 154.415,281.367 153.524 C 281.297 152.634,281.239 153.277,281.238 154.953 M395.355 156.308 C 395.358 157.240,395.423 157.580,395.501 157.066 C 395.579 156.551,395.577 155.789,395.497 155.372 C 395.416 154.956,395.353 155.377,395.355 156.308 M240.937 160.711 C 240.937 162.574,240.994 163.293,241.063 162.309 C 241.132 161.324,241.131 159.800,241.061 158.922 C 240.992 158.043,240.936 158.848,240.937 160.711 M215.525 161.558 C 215.525 162.955,215.584 163.527,215.657 162.828 C 215.730 162.130,215.730 160.986,215.657 160.288 C 215.584 159.589,215.525 160.161,215.525 161.558 M395.012 161.558 C 395.012 162.396,395.078 162.739,395.159 162.320 C 395.239 161.901,395.239 161.215,395.159 160.796 C 395.078 160.377,395.012 160.720,395.012 161.558 M328.598 163.844 L 328.660 165.792 328.784 164.031 L 328.908 162.270 330.669 162.146 L 332.430 162.022 330.483 161.959 L 328.535 161.897 328.598 163.844 M337.257 162.480 C 337.862 162.556,338.853 162.556,339.458 162.480 C 340.064 162.405,339.568 162.344,338.357 162.344 C 337.146 162.344,336.651 162.405,337.257 162.480 M345.216 162.817 C 345.728 162.894,346.566 162.894,347.079 162.817 C 347.591 162.739,347.172 162.676,346.147 162.676 C 345.123 162.676,344.704 162.739,345.216 162.817 M352.837 163.152 C 353.256 163.233,353.942 163.233,354.361 163.152 C 354.780 163.071,354.437 163.005,353.599 163.005 C 352.760 163.005,352.417 163.071,352.837 163.152 M280.899 166.469 C 280.898 168.146,280.955 168.874,281.026 168.088 C 281.098 167.302,281.098 165.930,281.028 165.040 C 280.958 164.149,280.900 164.793,280.899 166.469 M394.673 166.638 C 394.673 167.477,394.739 167.820,394.820 167.401 C 394.901 166.981,394.901 166.296,394.820 165.876 C 394.739 165.457,394.673 165.800,394.673 166.638 M215.186 170.703 C 215.186 172.100,215.246 172.671,215.319 171.973 C 215.392 171.274,215.392 170.131,215.319 169.433 C 215.246 168.734,215.186 169.306,215.186 170.703 M240.598 173.582 C 240.599 175.445,240.656 176.163,240.724 175.179 C 240.793 174.195,240.792 172.671,240.723 171.792 C 240.653 170.914,240.597 171.719,240.598 173.582 M394.339 171.888 C 394.342 172.820,394.407 173.160,394.485 172.646 C 394.563 172.131,394.561 171.369,394.481 170.952 C 394.400 170.536,394.336 170.957,394.339 171.888 M280.561 177.985 C 280.559 179.661,280.617 180.390,280.688 179.604 C 280.759 178.818,280.760 177.446,280.690 176.556 C 280.620 175.665,280.562 176.308,280.561 177.985 M329.007 179.678 C 329.008 182.286,329.061 183.308,329.126 181.950 C 329.190 180.591,329.190 178.457,329.125 177.208 C 329.060 175.959,329.007 177.070,329.007 179.678 M393.996 177.138 C 393.996 177.976,394.062 178.319,394.143 177.900 C 394.223 177.481,394.223 176.795,394.143 176.376 C 394.062 175.957,393.996 176.300,393.996 177.138 M214.844 180.017 C 214.846 181.321,214.907 181.813,214.980 181.110 C 215.054 180.407,215.053 179.341,214.978 178.739 C 214.903 178.138,214.843 178.713,214.844 180.017 M393.657 182.218 C 393.657 183.057,393.723 183.400,393.804 182.981 C 393.885 182.561,393.885 181.876,393.804 181.456 C 393.723 181.037,393.657 181.380,393.657 182.218 M240.204 186.176 L 240.135 189.286 239.204 189.427 L 238.273 189.568 239.215 189.619 C 240.423 189.684,240.527 189.356,240.388 185.916 L 240.273 183.065 240.204 186.176 M367.062 184.504 C 371.952 184.557,379.953 184.557,384.843 184.504 C 389.733 184.452,385.732 184.408,375.953 184.408 C 366.173 184.408,362.172 184.452,367.062 184.504 M214.395 187.807 C 214.395 188.273,214.526 188.654,214.686 188.654 C 214.847 188.654,214.905 188.273,214.816 187.807 C 214.727 187.341,214.596 186.960,214.524 186.960 C 214.453 186.960,214.395 187.341,214.395 187.807 M280.220 189.670 C 280.220 191.253,280.278 191.901,280.350 191.109 C 280.421 190.318,280.421 189.022,280.350 188.230 C 280.278 187.439,280.220 188.086,280.220 189.670 M220.738 188.898 C 221.339 188.973,222.406 188.974,223.108 188.901 C 223.811 188.828,223.319 188.766,222.015 188.765 C 220.711 188.763,220.136 188.823,220.738 188.898 M230.059 189.239 C 230.758 189.312,231.901 189.312,232.599 189.239 C 233.298 189.166,232.727 189.106,231.329 189.106 C 229.932 189.106,229.361 189.166,230.059 189.239 M172.548 203.726 C 172.548 210.059,172.594 212.602,172.650 209.377 C 172.706 206.152,172.705 200.970,172.650 197.861 C 172.594 194.753,172.548 197.392,172.548 203.726 M329.346 198.307 C 329.347 200.914,329.400 201.937,329.464 200.578 C 329.529 199.219,329.528 197.085,329.463 195.836 C 329.398 194.587,329.346 195.699,329.346 198.307 M289.738 205.927 C 289.738 212.540,289.783 215.246,289.839 211.939 C 289.894 208.633,289.894 203.222,289.839 199.915 C 289.783 196.609,289.738 199.314,289.738 205.927 M279.883 201.355 C 279.882 203.031,279.939 203.760,280.010 202.974 C 280.081 202.188,280.082 200.816,280.012 199.926 C 279.942 199.035,279.884 199.678,279.883 201.355 M279.544 212.870 C 279.543 214.547,279.601 215.276,279.672 214.489 C 279.743 213.703,279.744 212.332,279.674 211.441 C 279.604 210.551,279.545 211.194,279.544 212.870 M329.685 216.935 C 329.685 219.543,329.739 220.565,329.803 219.206 C 329.867 217.847,329.867 215.714,329.802 214.464 C 329.737 213.215,329.684 214.327,329.685 216.935 M279.206 224.386 C 279.205 226.063,279.262 226.791,279.333 226.005 C 279.404 225.219,279.405 223.847,279.335 222.957 C 279.265 222.066,279.207 222.710,279.206 224.386 M213.141 225.572 C 213.141 226.596,213.205 227.015,213.282 226.503 C 213.360 225.991,213.360 225.152,213.282 224.640 C 213.205 224.128,213.141 224.547,213.141 225.572 M216.690 224.127 C 217.486 224.198,218.706 224.197,219.399 224.124 C 220.093 224.051,219.441 223.993,217.951 223.994 C 216.461 223.995,215.893 224.055,216.690 224.127 M227.189 224.465 C 227.986 224.537,229.205 224.536,229.899 224.463 C 230.593 224.390,229.941 224.332,228.450 224.333 C 226.960 224.334,226.393 224.394,227.189 224.465 M237.490 224.793 C 238.914 224.915,239.093 225.025,239.216 225.843 C 239.339 226.672,239.349 226.662,239.320 225.741 C 239.290 224.756,239.236 224.724,237.595 224.690 L 235.902 224.656 237.490 224.793 M330.024 235.563 C 330.024 238.171,330.077 239.193,330.142 237.834 C 330.206 236.476,330.206 234.342,330.141 233.093 C 330.076 231.843,330.023 232.955,330.024 235.563 M212.812 234.208 C 212.814 235.512,212.875 236.004,212.948 235.302 C 213.022 234.599,213.020 233.532,212.946 232.931 C 212.871 232.329,212.811 232.904,212.812 234.208 M278.867 235.902 C 278.866 237.578,278.923 238.307,278.994 237.521 C 279.065 236.735,279.066 235.363,278.996 234.473 C 278.926 233.582,278.868 234.225,278.867 235.902 M238.903 236.749 C 238.903 238.518,238.960 239.242,239.030 238.357 C 239.099 237.472,239.099 236.025,239.030 235.140 C 238.960 234.255,238.903 234.979,238.903 236.749 M360.631 236.649 C 361.052 236.730,361.661 236.727,361.985 236.643 C 362.309 236.558,361.964 236.491,361.219 236.495 C 360.474 236.499,360.209 236.568,360.631 236.649 M365.372 236.988 C 365.794 237.069,366.403 237.066,366.727 236.981 C 367.051 236.896,366.706 236.830,365.961 236.834 C 365.216 236.838,364.951 236.907,365.372 236.988 M370.114 237.327 C 370.535 237.408,371.145 237.405,371.469 237.320 C 371.793 237.235,371.448 237.169,370.703 237.173 C 369.958 237.176,369.693 237.246,370.114 237.327 M374.856 237.665 C 375.277 237.746,375.887 237.743,376.211 237.659 C 376.534 237.574,376.190 237.508,375.445 237.511 C 374.699 237.515,374.434 237.584,374.856 237.665 M379.936 238.004 C 380.358 238.085,380.967 238.082,381.291 237.997 C 381.615 237.913,381.270 237.846,380.525 237.850 C 379.780 237.854,379.515 237.923,379.936 238.004 M384.678 238.343 C 385.099 238.424,385.709 238.421,386.033 238.336 C 386.357 238.251,386.012 238.185,385.267 238.189 C 384.522 238.192,384.257 238.262,384.678 238.343 M172.210 249.788 C 172.210 256.122,172.255 258.665,172.311 255.440 C 172.367 252.214,172.367 247.032,172.311 243.924 C 172.255 240.816,172.209 243.455,172.210 249.788 M389.758 238.682 C 390.180 238.763,390.789 238.759,391.113 238.675 C 391.437 238.590,391.092 238.524,390.347 238.527 C 389.602 238.531,389.337 238.601,389.758 238.682 M393.311 239.966 C 393.315 240.711,393.385 240.976,393.466 240.555 C 393.547 240.134,393.544 239.524,393.459 239.200 C 393.374 238.876,393.308 239.221,393.311 239.966 M212.476 243.522 C 212.476 244.920,212.536 245.491,212.609 244.793 C 212.682 244.094,212.682 242.951,212.609 242.252 C 212.536 241.554,212.476 242.125,212.476 243.522 M290.076 254.361 C 290.076 260.974,290.122 263.679,290.177 260.373 C 290.233 257.066,290.233 251.655,290.177 248.349 C 290.122 245.042,290.076 247.748,290.076 254.361 M278.526 247.587 C 278.526 249.170,278.585 249.818,278.656 249.026 C 278.727 248.235,278.727 246.939,278.656 246.147 C 278.585 245.356,278.526 246.003,278.526 247.587 M393.685 248.772 C 393.684 250.449,393.741 251.177,393.812 250.391 C 393.883 249.605,393.884 248.233,393.814 247.343 C 393.744 246.453,393.686 247.096,393.685 248.772 M238.566 249.788 C 238.567 251.651,238.623 252.370,238.692 251.386 C 238.761 250.402,238.760 248.877,238.690 247.999 C 238.621 247.120,238.565 247.925,238.566 249.788 M330.347 252.329 C 330.347 253.912,330.405 254.560,330.477 253.768 C 330.548 252.976,330.548 251.681,330.477 250.889 C 330.405 250.097,330.347 250.745,330.347 252.329 M212.138 252.667 C 212.138 254.064,212.197 254.636,212.270 253.937 C 212.344 253.239,212.344 252.096,212.270 251.397 C 212.197 250.699,212.138 251.270,212.138 252.667 M333.362 255.272 C 333.688 255.357,334.221 255.357,334.547 255.272 C 334.873 255.186,334.606 255.117,333.954 255.117 C 333.302 255.117,333.036 255.186,333.362 255.272 M337.765 255.610 C 338.091 255.695,338.624 255.695,338.950 255.610 C 339.276 255.525,339.009 255.455,338.357 255.455 C 337.705 255.455,337.439 255.525,337.765 255.610 M342.168 255.949 C 342.494 256.034,343.027 256.034,343.353 255.949 C 343.679 255.864,343.412 255.794,342.760 255.794 C 342.108 255.794,341.842 255.864,342.168 255.949 M347.083 256.294 C 347.504 256.375,348.114 256.372,348.437 256.287 C 348.761 256.202,348.417 256.136,347.671 256.140 C 346.926 256.143,346.661 256.213,347.083 256.294 M278.190 259.272 C 278.189 260.948,278.246 261.677,278.317 260.891 C 278.388 260.105,278.389 258.733,278.319 257.843 C 278.249 256.952,278.191 257.595,278.190 259.272 M351.651 256.626 C 351.977 256.712,352.511 256.712,352.837 256.626 C 353.163 256.541,352.896 256.471,352.244 256.471 C 351.592 256.471,351.325 256.541,351.651 256.626 M394.024 259.272 C 394.023 260.948,394.080 261.677,394.151 260.891 C 394.222 260.105,394.223 258.733,394.153 257.843 C 394.083 256.952,394.025 257.595,394.024 259.272 M211.799 261.812 C 211.799 263.209,211.859 263.781,211.932 263.082 C 212.005 262.384,212.005 261.240,211.932 260.542 C 211.859 259.843,211.799 260.415,211.799 261.812 M238.227 262.659 C 238.228 264.522,238.285 265.240,238.353 264.256 C 238.422 263.272,238.421 261.748,238.352 260.869 C 238.282 259.991,238.226 260.796,238.227 262.659 M394.321 267.909 C 394.321 268.561,394.390 268.827,394.476 268.501 C 394.561 268.175,394.561 267.642,394.476 267.316 C 394.390 266.990,394.321 267.257,394.321 267.909 M277.851 270.787 C 277.850 272.464,277.907 273.193,277.978 272.406 C 278.049 271.620,278.050 270.249,277.980 269.358 C 277.910 268.468,277.852 269.111,277.851 270.787 M211.457 270.787 C 211.459 272.091,211.520 272.583,211.593 271.881 C 211.667 271.178,211.666 270.111,211.591 269.510 C 211.516 268.909,211.456 269.483,211.457 270.787 M237.888 275.529 C 237.889 277.392,237.946 278.111,238.015 277.127 C 238.083 276.142,238.083 274.618,238.013 273.740 C 237.944 272.861,237.887 273.666,237.888 275.529 M211.047 278.472 C 211.013 279.267,210.845 279.400,209.738 279.516 L 208.467 279.649 209.748 279.706 C 211.098 279.766,211.540 279.313,211.245 278.174 C 211.139 277.764,211.073 277.863,211.047 278.472 M277.489 280.948 C 277.491 281.880,277.557 282.221,277.635 281.706 C 277.713 281.191,277.711 280.429,277.630 280.012 C 277.550 279.596,277.486 280.017,277.489 280.948 M203.810 280.002 C 204.229 280.083,204.915 280.083,205.334 280.002 C 205.754 279.921,205.411 279.855,204.572 279.855 C 203.734 279.855,203.391 279.921,203.810 280.002 M198.391 280.341 C 198.810 280.421,199.496 280.421,199.915 280.341 C 200.334 280.260,199.992 280.194,199.153 280.194 C 198.315 280.194,197.972 280.260,198.391 280.341 M193.315 280.680 C 193.736 280.761,194.346 280.758,194.669 280.673 C 194.993 280.588,194.649 280.522,193.903 280.526 C 193.158 280.529,192.893 280.599,193.315 280.680 M187.896 281.019 C 188.317 281.100,188.927 281.096,189.250 281.012 C 189.574 280.927,189.229 280.861,188.484 280.864 C 187.739 280.868,187.474 280.938,187.896 281.019 M243.607 281.022 C 244.119 281.099,244.958 281.099,245.470 281.022 C 245.982 280.944,245.563 280.880,244.539 280.880 C 243.514 280.880,243.095 280.944,243.607 281.022 M182.472 281.357 C 182.892 281.437,183.577 281.437,183.997 281.357 C 184.416 281.276,184.073 281.210,183.235 281.210 C 182.396 281.210,182.053 281.276,182.472 281.357 M250.381 281.360 C 250.893 281.438,251.732 281.438,252.244 281.360 C 252.756 281.283,252.337 281.219,251.312 281.219 C 250.288 281.219,249.869 281.283,250.381 281.360 M177.053 281.695 C 177.472 281.776,178.158 281.776,178.577 281.695 C 178.997 281.615,178.654 281.549,177.815 281.549 C 176.977 281.549,176.634 281.615,177.053 281.695 M257.324 281.695 C 257.743 281.776,258.429 281.776,258.848 281.695 C 259.268 281.615,258.925 281.549,258.086 281.549 C 257.248 281.549,256.905 281.615,257.324 281.695 M264.437 282.040 C 265.042 282.115,266.033 282.115,266.638 282.040 C 267.244 281.965,266.749 281.903,265.538 281.903 C 264.327 281.903,263.831 281.965,264.437 282.040 M384.589 282.134 L 381.541 282.344 384.485 282.408 C 386.155 282.445,387.519 282.326,387.638 282.134 C 387.753 281.948,387.800 281.824,387.742 281.859 C 387.685 281.894,386.266 282.018,384.589 282.134 M272.227 282.379 C 272.832 282.454,273.823 282.454,274.428 282.379 C 275.034 282.304,274.539 282.242,273.328 282.242 C 272.117 282.242,271.622 282.304,272.227 282.379 M339.627 282.726 C 342.841 282.782,348.099 282.782,351.312 282.726 C 354.526 282.670,351.897 282.625,345.470 282.625 C 339.043 282.625,336.414 282.670,339.627 282.726 M303.387 283.050 C 303.806 283.131,304.492 283.131,304.911 283.050 C 305.330 282.969,304.987 282.903,304.149 282.903 C 303.311 282.903,302.968 282.969,303.387 283.050 " stroke="none" fill="#f9e6a7" fill-rule="evenodd"></path><path id="path4" d="M24.651 161.131 C 25.636 161.199,27.160 161.199,28.038 161.129 C 28.917 161.060,28.112 161.003,26.249 161.004 C 24.386 161.005,23.667 161.062,24.651 161.131 M37.172 161.458 C 37.591 161.539,38.277 161.539,38.696 161.458 C 39.115 161.378,38.772 161.312,37.934 161.312 C 37.096 161.312,36.753 161.378,37.172 161.458 M81.195 162.480 C 81.796 162.555,82.863 162.556,83.566 162.483 C 84.268 162.409,83.776 162.348,82.472 162.347 C 81.169 162.345,80.594 162.405,81.195 162.480 M139.204 163.082 C 139.204 163.548,139.335 163.929,139.496 163.929 C 139.656 163.929,139.715 163.548,139.626 163.082 C 139.537 162.616,139.405 162.235,139.334 162.235 C 139.263 162.235,139.204 162.616,139.204 163.082 M91.533 162.823 C 92.417 162.893,93.865 162.893,94.750 162.823 C 95.635 162.753,94.911 162.696,93.141 162.696 C 91.372 162.696,90.648 162.753,91.533 162.823 M147.756 164.178 C 148.641 164.248,150.089 164.248,150.974 164.178 C 151.859 164.108,151.135 164.051,149.365 164.051 C 147.595 164.051,146.871 164.108,147.756 164.178 M158.848 164.401 C 158.848 164.475,159.445 164.592,160.175 164.662 C 160.904 164.731,161.429 164.671,161.340 164.528 C 161.179 164.267,158.848 164.149,158.848 164.401 M160.959 168.332 C 160.959 168.984,161.029 169.251,161.114 168.925 C 161.199 168.599,161.199 168.065,161.114 167.739 C 161.029 167.413,160.959 167.680,160.959 168.332 M160.620 172.396 C 160.620 173.048,160.690 173.315,160.775 172.989 C 160.861 172.663,160.861 172.130,160.775 171.804 C 160.690 171.478,160.620 171.744,160.620 172.396 M160.282 176.799 C 160.282 177.451,160.351 177.718,160.437 177.392 C 160.522 177.066,160.522 176.533,160.437 176.207 C 160.351 175.881,160.282 176.147,160.282 176.799 M159.943 180.864 C 159.943 181.516,160.013 181.782,160.098 181.456 C 160.183 181.130,160.183 180.597,160.098 180.271 C 160.013 179.945,159.943 180.212,159.943 180.864 M159.604 185.267 C 159.604 185.919,159.674 186.185,159.759 185.859 C 159.844 185.533,159.844 185.000,159.759 184.674 C 159.674 184.348,159.604 184.615,159.604 185.267 M159.266 189.331 C 159.266 189.983,159.335 190.250,159.421 189.924 C 159.506 189.598,159.506 189.064,159.421 188.738 C 159.335 188.412,159.266 188.679,159.266 189.331 M158.927 193.734 C 158.927 194.386,158.997 194.653,159.082 194.327 C 159.167 194.001,159.167 193.467,159.082 193.141 C 158.997 192.815,158.927 193.082,158.927 193.734 M15.163 196.350 C 15.771 196.426,16.686 196.424,17.195 196.347 C 17.704 196.270,17.206 196.208,16.088 196.210 C 14.970 196.212,14.554 196.275,15.163 196.350 M22.953 196.689 C 23.561 196.765,24.476 196.763,24.985 196.686 C 25.494 196.608,24.996 196.547,23.878 196.549 C 22.760 196.551,22.344 196.614,22.953 196.689 M30.737 197.027 C 31.342 197.103,32.333 197.103,32.938 197.027 C 33.544 196.952,33.048 196.891,31.837 196.891 C 30.627 196.891,30.131 196.952,30.737 197.027 M158.588 197.798 C 158.588 198.450,158.658 198.717,158.743 198.391 C 158.828 198.065,158.828 197.532,158.743 197.206 C 158.658 196.880,158.588 197.146,158.588 197.798 M78.485 199.059 C 79.087 199.134,80.153 199.135,80.856 199.062 C 81.559 198.988,81.067 198.927,79.763 198.926 C 78.459 198.924,77.884 198.984,78.485 199.059 M88.484 199.396 C 88.997 199.473,89.835 199.473,90.347 199.396 C 90.859 199.318,90.440 199.255,89.416 199.255 C 88.391 199.255,87.972 199.318,88.484 199.396 M133.531 201.089 C 134.043 201.167,134.881 201.167,135.394 201.089 C 135.906 201.012,135.487 200.948,134.462 200.948 C 133.438 200.948,133.019 201.012,133.531 201.089 M140.644 201.428 C 141.156 201.506,141.994 201.506,142.506 201.428 C 143.019 201.350,142.599 201.287,141.575 201.287 C 140.550 201.287,140.131 201.350,140.644 201.428 M147.932 201.770 C 148.540 201.845,149.455 201.843,149.964 201.766 C 150.473 201.689,149.975 201.627,148.857 201.629 C 147.739 201.631,147.323 201.694,147.932 201.770 M155.207 202.105 C 155.720 202.183,156.558 202.183,157.070 202.105 C 157.583 202.028,157.163 201.964,156.139 201.964 C 155.114 201.964,154.695 202.028,155.207 202.105 M12.456 221.756 C 13.253 221.827,14.472 221.826,15.166 221.753 C 15.859 221.681,15.207 221.622,13.717 221.623 C 12.227 221.625,11.659 221.684,12.456 221.756 M24.313 222.096 C 25.297 222.165,26.821 222.164,27.700 222.094 C 28.578 222.025,27.773 221.969,25.910 221.970 C 24.047 221.970,23.329 222.027,24.313 222.096 M71.215 223.105 C 71.730 223.183,72.492 223.181,72.909 223.100 C 73.326 223.020,72.904 222.956,71.973 222.959 C 71.041 222.961,70.701 223.027,71.215 223.105 M80.534 223.449 C 81.331 223.521,82.550 223.520,83.243 223.447 C 83.937 223.374,83.285 223.316,81.795 223.317 C 80.305 223.318,79.737 223.378,80.534 223.449 M8.885 225.233 C 8.885 225.885,8.954 226.152,9.040 225.826 C 9.125 225.500,9.125 224.966,9.040 224.640 C 8.954 224.314,8.885 224.581,8.885 225.233 M135.732 224.805 C 136.710 224.874,138.311 224.874,139.289 224.805 C 140.267 224.737,139.467 224.681,137.511 224.681 C 135.555 224.681,134.754 224.737,135.732 224.805 M151.121 225.139 C 153.539 225.237,154.093 225.362,154.234 225.838 C 154.362 226.269,154.389 226.244,154.337 225.741 C 154.274 225.121,154.011 225.062,151.224 225.041 L 148.180 225.019 151.121 225.139 M8.553 229.467 C 8.557 230.212,8.626 230.477,8.707 230.055 C 8.788 229.634,8.785 229.024,8.700 228.701 C 8.615 228.377,8.549 228.721,8.553 229.467 M8.207 233.700 C 8.207 234.352,8.277 234.619,8.362 234.293 C 8.447 233.967,8.447 233.434,8.362 233.108 C 8.277 232.782,8.207 233.048,8.207 233.700 M7.875 237.934 C 7.879 238.679,7.949 238.944,8.030 238.523 C 8.111 238.101,8.107 237.492,8.023 237.168 C 7.938 236.844,7.872 237.189,7.875 237.934 M7.537 242.337 C 7.540 243.082,7.610 243.347,7.691 242.926 C 7.772 242.504,7.769 241.895,7.684 241.571 C 7.599 241.247,7.533 241.592,7.537 242.337 M7.191 246.571 C 7.191 247.223,7.261 247.489,7.346 247.163 C 7.431 246.837,7.431 246.304,7.346 245.978 C 7.261 245.652,7.191 245.919,7.191 246.571 M6.859 250.804 C 6.863 251.550,6.932 251.814,7.013 251.393 C 7.094 250.972,7.091 250.362,7.007 250.038 C 6.922 249.715,6.856 250.059,6.859 250.804 M6.514 255.038 C 6.514 255.690,6.584 255.957,6.669 255.631 C 6.754 255.305,6.754 254.771,6.669 254.445 C 6.584 254.119,6.514 254.386,6.514 255.038 M7.202 256.975 C 7.717 257.052,8.479 257.050,8.895 256.970 C 9.312 256.890,8.891 256.826,7.959 256.828 C 7.028 256.831,6.687 256.897,7.202 256.975 M15.149 257.315 C 15.750 257.390,16.817 257.391,17.520 257.317 C 18.223 257.244,17.731 257.183,16.427 257.181 C 15.123 257.180,14.548 257.240,15.149 257.315 M24.644 257.649 C 25.065 257.730,25.675 257.726,25.999 257.642 C 26.323 257.557,25.978 257.491,25.233 257.494 C 24.488 257.498,24.223 257.568,24.644 257.649 M63.901 259.328 C 63.776 259.452,63.677 259.719,63.680 259.921 C 63.684 260.169,63.766 260.164,63.934 259.904 C 64.071 259.692,64.488 259.443,64.860 259.350 C 65.516 259.187,65.515 259.180,64.832 259.142 C 64.444 259.120,64.025 259.204,63.901 259.328 M70.370 259.687 C 70.979 259.762,71.893 259.760,72.402 259.683 C 72.911 259.606,72.413 259.544,71.296 259.546 C 70.178 259.548,69.761 259.611,70.370 259.687 M78.160 260.025 C 78.769 260.101,79.683 260.099,80.192 260.022 C 80.701 259.945,80.203 259.883,79.086 259.885 C 77.968 259.887,77.551 259.950,78.160 260.025 M123.878 262.057 C 124.483 262.132,125.474 262.132,126.080 262.057 C 126.685 261.982,126.190 261.920,124.979 261.920 C 123.768 261.920,123.273 261.982,123.878 262.057 M132.338 262.395 C 132.939 262.470,134.006 262.471,134.709 262.398 C 135.412 262.325,134.920 262.263,133.616 262.262 C 132.312 262.260,131.737 262.320,132.338 262.395 M141.490 262.734 C 142.096 262.810,143.086 262.810,143.692 262.734 C 144.297 262.659,143.802 262.598,142.591 262.598 C 141.380 262.598,140.885 262.659,141.490 262.734 " stroke="none" fill="#afddf9" fill-rule="evenodd"></path></g></svg>