<svg id="svg" version="1.1" xmlns="http://www.w3.org/2000/svg" xmlns:xlink="http://www.w3.org/1999/xlink" width="400" height="401.40845070422534" viewBox="0, 0, 400,401.40845070422534"><g id="svgg"><path id="path0" d="M198.000 7.000 C 198.000 7.517,196.640 7.600,188.163 7.600 C 178.662 7.600,178.318 7.627,178.116 8.400 C 177.922 9.143,177.570 9.200,173.153 9.200 C 169.195 9.200,168.400 9.300,168.400 9.800 C 168.400 10.289,167.733 10.400,164.800 10.400 C 161.467 10.400,161.200 10.459,161.200 11.200 C 161.200 11.937,160.933 12.000,157.800 12.000 C 155.044 12.000,154.400 12.114,154.400 12.600 C 154.400 13.073,153.840 13.200,151.763 13.200 C 149.462 13.200,149.098 13.302,148.916 14.000 C 148.732 14.703,148.370 14.800,145.941 14.800 C 143.851 14.800,143.119 14.947,142.945 15.400 C 142.811 15.748,142.213 16.000,141.520 16.000 C 140.662 16.000,140.266 16.225,140.116 16.800 C 139.943 17.462,139.570 17.600,137.953 17.600 C 136.267 17.600,136.000 17.709,136.000 18.400 C 136.000 19.048,135.733 19.200,134.600 19.200 C 133.622 19.200,133.200 19.381,133.200 19.800 C 133.200 20.261,132.689 20.400,131.000 20.400 C 129.067 20.400,128.800 20.497,128.800 21.200 C 128.800 21.848,128.533 22.000,127.400 22.000 C 126.422 22.000,126.000 22.181,126.000 22.600 C 126.000 23.019,125.578 23.200,124.600 23.200 C 123.467 23.200,123.200 23.352,123.200 24.000 C 123.200 24.648,122.933 24.800,121.800 24.800 C 120.822 24.800,120.400 24.981,120.400 25.400 C 120.400 25.819,119.978 26.000,119.000 26.000 C 117.867 26.000,117.600 26.152,117.600 26.800 C 117.600 27.503,117.333 27.600,115.400 27.600 C 113.711 27.600,113.200 27.739,113.200 28.200 C 113.200 28.619,112.778 28.800,111.800 28.800 C 110.667 28.800,110.400 28.952,110.400 29.600 C 110.400 30.044,110.133 30.400,109.800 30.400 C 109.470 30.400,109.200 30.670,109.200 31.000 C 109.200 31.419,108.778 31.600,107.800 31.600 C 106.795 31.600,106.400 31.423,106.400 30.972 C 106.400 30.550,106.105 30.386,105.500 30.472 C 104.266 30.648,104.266 32.153,105.501 32.328 C 106.245 32.434,106.357 32.630,106.150 33.459 C 106.011 34.010,106.085 34.853,106.315 35.331 C 107.481 37.761,111.374 45.960,113.376 50.200 C 115.554 54.814,116.790 57.420,119.781 63.700 C 120.540 65.295,122.005 68.400,123.035 70.600 C 125.332 75.505,129.176 83.635,130.979 87.400 C 131.717 88.940,133.255 92.180,134.398 94.600 C 135.540 97.020,137.168 100.440,138.015 102.200 C 138.862 103.960,140.307 107.020,141.225 109.000 C 142.144 110.980,143.753 114.400,144.802 116.600 C 145.850 118.800,147.646 122.580,148.793 125.000 C 149.940 127.420,151.476 130.660,152.206 132.200 C 152.937 133.740,154.426 136.890,155.517 139.200 C 156.608 141.510,158.226 144.930,159.114 146.800 C 160.001 148.670,161.478 151.808,162.395 153.774 C 164.716 158.750,164.788 158.394,164.789 141.800 C 164.791 93.875,165.680 26.195,166.313 25.700 C 166.690 25.405,168.113 25.204,169.776 25.209 C 171.329 25.214,177.730 24.947,184.000 24.617 C 194.749 24.051,205.016 23.623,227.400 22.807 C 232.680 22.614,241.471 22.233,246.935 21.961 C 258.677 21.375,257.736 20.941,257.437 26.800 C 257.319 29.110,257.030 36.400,256.796 43.000 C 256.562 49.600,256.195 59.320,255.981 64.600 C 255.767 69.880,255.412 80.050,255.192 87.200 C 254.972 94.350,254.523 105.330,254.194 111.600 C 253.866 117.870,253.589 125.790,253.580 129.200 C 253.571 132.610,253.401 138.280,253.203 141.800 C 253.006 145.320,252.651 154.680,252.416 162.600 C 252.180 170.520,251.804 180.150,251.580 184.000 C 251.356 187.850,251.005 197.428,250.801 205.284 C 250.597 213.140,250.238 222.680,250.004 226.484 C 249.769 230.288,249.408 239.520,249.201 247.000 C 248.994 254.480,248.639 264.650,248.413 269.600 C 248.004 278.549,247.590 290.140,246.806 314.600 C 246.244 332.138,245.643 343.172,245.206 343.989 C 244.883 344.593,243.718 344.706,235.277 344.948 C 230.018 345.100,221.054 345.485,215.357 345.805 C 209.661 346.125,202.390 346.391,199.200 346.396 C 196.010 346.401,188.745 346.672,183.055 346.998 C 177.366 347.325,172.587 347.516,172.437 347.423 C 172.103 347.217,169.882 342.686,164.631 331.500 C 163.624 329.355,161.967 325.845,160.949 323.700 C 156.158 313.609,155.002 311.164,153.524 308.000 C 152.651 306.130,151.292 303.250,150.504 301.600 C 149.717 299.950,148.447 297.250,147.683 295.600 C 146.919 293.950,146.137 292.330,145.946 292.000 C 145.755 291.670,145.411 290.950,145.183 290.400 C 144.954 289.850,144.250 288.320,143.618 287.000 C 142.986 285.680,141.622 282.800,140.588 280.600 C 139.553 278.400,137.722 274.530,136.518 272.000 C 135.315 269.470,133.908 266.500,133.394 265.400 C 132.879 264.300,131.478 261.330,130.281 258.800 C 129.084 256.270,127.470 252.850,126.695 251.200 C 125.920 249.550,124.302 246.130,123.099 243.600 C 121.895 241.070,120.323 237.740,119.605 236.200 C 118.112 233.000,115.033 226.492,112.792 221.800 C 110.771 217.568,107.249 210.134,105.496 206.400 C 103.840 202.873,100.345 195.495,98.902 192.481 C 96.595 187.661,96.421 188.810,95.622 214.200 C 95.226 226.811,94.943 234.303,93.970 258.000 C 93.730 263.830,93.294 275.890,93.000 284.800 C 92.707 293.710,92.265 305.950,92.020 312.000 C 91.774 318.050,91.444 326.600,91.286 330.999 L 91.000 338.999 89.400 339.525 C 88.520 339.815,85.640 340.229,83.000 340.446 C 77.017 340.938,69.290 341.897,68.782 342.211 C 67.754 342.846,68.411 344.000,69.800 344.000 C 70.933 344.000,71.200 344.152,71.200 344.800 C 71.200 345.244,71.467 345.600,71.800 345.600 C 72.130 345.600,72.400 345.887,72.400 346.237 C 72.400 346.588,72.760 346.969,73.200 347.084 C 73.640 347.199,74.000 347.542,74.000 347.847 C 74.000 348.151,74.249 348.400,74.553 348.400 C 74.858 348.400,75.201 348.760,75.316 349.200 C 75.431 349.640,75.812 350.000,76.163 350.000 C 76.513 350.000,76.800 350.270,76.800 350.600 C 76.800 350.930,77.070 351.200,77.400 351.200 C 77.730 351.200,78.000 351.487,78.000 351.837 C 78.000 352.188,78.360 352.569,78.800 352.684 C 79.240 352.799,79.600 353.142,79.600 353.447 C 79.600 353.812,80.075 354.000,81.000 354.000 C 82.133 354.000,82.400 354.152,82.400 354.800 C 82.400 355.333,82.667 355.600,83.200 355.600 C 83.644 355.600,84.000 355.867,84.000 356.200 C 84.000 356.530,84.270 356.800,84.600 356.800 C 84.933 356.800,85.200 357.156,85.200 357.600 C 85.200 358.248,85.467 358.400,86.600 358.400 C 87.578 358.400,88.000 358.581,88.000 359.000 C 88.000 359.333,88.356 359.600,88.800 359.600 C 89.333 359.600,89.600 359.867,89.600 360.400 C 89.600 360.844,89.867 361.200,90.200 361.200 C 90.530 361.200,90.800 361.470,90.800 361.800 C 90.800 362.219,91.222 362.400,92.200 362.400 C 93.333 362.400,93.600 362.552,93.600 363.200 C 93.600 363.733,93.867 364.000,94.400 364.000 C 94.844 364.000,95.200 364.267,95.200 364.600 C 95.200 365.019,95.622 365.200,96.600 365.200 C 97.733 365.200,98.000 365.352,98.000 366.000 C 98.000 366.648,98.267 366.800,99.400 366.800 C 100.378 366.800,100.800 366.981,100.800 367.400 C 100.800 367.730,101.070 368.000,101.400 368.000 C 101.733 368.000,102.000 368.356,102.000 368.800 C 102.000 369.448,102.267 369.600,103.400 369.600 C 104.378 369.600,104.800 369.781,104.800 370.200 C 104.800 370.619,105.222 370.800,106.200 370.800 C 107.333 370.800,107.600 370.952,107.600 371.600 C 107.600 372.248,107.867 372.400,109.000 372.400 C 109.978 372.400,110.400 372.581,110.400 373.000 C 110.400 373.415,110.817 373.600,111.753 373.600 C 112.770 373.600,113.159 373.799,113.316 374.400 C 113.466 374.975,113.862 375.200,114.720 375.200 C 115.413 375.200,116.011 375.452,116.145 375.800 C 116.289 376.177,116.901 376.400,117.787 376.400 C 118.933 376.400,119.200 376.551,119.200 377.200 C 119.200 377.848,119.467 378.000,120.600 378.000 C 121.578 378.000,122.000 378.181,122.000 378.600 C 122.000 379.019,122.422 379.200,123.400 379.200 C 124.533 379.200,124.800 379.352,124.800 380.000 C 124.800 380.648,125.067 380.800,126.200 380.800 C 127.178 380.800,127.600 380.981,127.600 381.400 C 127.600 381.853,128.089 382.000,129.600 382.000 C 131.333 382.000,131.600 382.107,131.600 382.800 C 131.600 383.442,131.867 383.600,132.953 383.600 C 133.970 383.600,134.359 383.799,134.516 384.400 C 134.691 385.068,135.062 385.200,136.763 385.200 C 138.307 385.200,138.800 385.345,138.800 385.800 C 138.800 386.251,139.284 386.400,140.753 386.400 C 142.370 386.400,142.743 386.538,142.916 387.200 C 143.091 387.868,143.462 388.000,145.163 388.000 C 146.707 388.000,147.200 388.145,147.200 388.600 C 147.200 389.076,147.778 389.200,150.000 389.200 C 152.533 389.200,152.800 389.276,152.800 390.000 C 152.800 390.724,153.067 390.800,155.600 390.800 C 157.822 390.800,158.400 390.924,158.400 391.400 C 158.400 391.889,159.067 392.000,162.000 392.000 C 165.333 392.000,165.600 392.059,165.600 392.800 C 165.600 393.549,165.867 393.600,169.800 393.600 C 173.267 393.600,174.000 393.705,174.000 394.200 C 174.000 394.705,174.889 394.800,179.600 394.800 C 184.933 394.800,185.200 394.838,185.200 395.600 C 185.200 396.388,185.467 396.400,202.800 396.400 C 220.133 396.400,220.400 396.388,220.400 395.600 C 220.400 394.838,220.667 394.800,226.000 394.800 C 230.711 394.800,231.600 394.705,231.600 394.200 C 231.600 393.705,232.333 393.600,235.800 393.600 C 239.733 393.600,240.000 393.549,240.000 392.800 C 240.000 392.059,240.267 392.000,243.600 392.000 C 246.533 392.000,247.200 391.889,247.200 391.400 C 247.200 390.924,247.778 390.800,250.000 390.800 C 252.533 390.800,252.800 390.724,252.800 390.000 C 252.800 389.276,253.067 389.200,255.600 389.200 C 257.822 389.200,258.400 389.076,258.400 388.600 C 258.400 388.145,258.893 388.000,260.437 388.000 C 262.138 388.000,262.509 387.868,262.684 387.200 C 262.857 386.538,263.230 386.400,264.847 386.400 C 266.316 386.400,266.800 386.251,266.800 385.800 C 266.800 385.339,267.311 385.200,269.000 385.200 C 270.933 385.200,271.200 385.103,271.200 384.400 C 271.200 383.752,271.467 383.600,272.600 383.600 C 273.733 383.600,274.000 383.448,274.000 382.800 C 274.000 382.107,274.267 382.000,276.000 382.000 C 277.511 382.000,278.000 381.853,278.000 381.400 C 278.000 380.981,278.422 380.800,279.400 380.800 C 280.533 380.800,280.800 380.648,280.800 380.000 C 280.800 379.333,281.067 379.200,282.400 379.200 C 283.556 379.200,284.000 379.033,284.000 378.600 C 284.000 378.181,284.422 378.000,285.400 378.000 C 286.533 378.000,286.800 377.848,286.800 377.200 C 286.800 376.552,287.067 376.400,288.200 376.400 C 289.178 376.400,289.600 376.219,289.600 375.800 C 289.600 375.381,290.022 375.200,291.000 375.200 C 292.133 375.200,292.400 375.048,292.400 374.400 C 292.400 373.752,292.667 373.600,293.800 373.600 C 294.778 373.600,295.200 373.419,295.200 373.000 C 295.200 372.581,295.622 372.400,296.600 372.400 C 297.733 372.400,298.000 372.248,298.000 371.600 C 298.000 370.952,298.267 370.800,299.400 370.800 C 300.378 370.800,300.800 370.619,300.800 370.200 C 300.800 369.781,301.222 369.600,302.200 369.600 C 303.333 369.600,303.600 369.448,303.600 368.800 C 303.600 368.356,303.867 368.000,304.200 368.000 C 304.530 368.000,304.800 367.730,304.800 367.400 C 304.800 366.981,305.222 366.800,306.200 366.800 C 307.333 366.800,307.600 366.648,307.600 366.000 C 307.600 365.352,307.867 365.200,309.000 365.200 C 309.978 365.200,310.400 365.019,310.400 364.600 C 310.400 364.267,310.756 364.000,311.200 364.000 C 311.733 364.000,312.000 363.733,312.000 363.200 C 312.000 362.756,312.267 362.400,312.600 362.400 C 312.930 362.400,313.200 362.130,313.200 361.800 C 313.200 361.381,313.622 361.200,314.600 361.200 C 315.733 361.200,316.000 361.048,316.000 360.400 C 316.000 359.867,316.267 359.600,316.800 359.600 C 317.244 359.600,317.600 359.333,317.600 359.000 C 317.600 358.581,318.022 358.400,319.000 358.400 C 320.133 358.400,320.400 358.248,320.400 357.600 C 320.400 357.067,320.667 356.800,321.200 356.800 C 321.644 356.800,322.000 356.533,322.000 356.200 C 322.000 355.870,322.270 355.600,322.600 355.600 C 322.933 355.600,323.200 355.244,323.200 354.800 C 323.200 354.152,323.467 354.000,324.600 354.000 C 325.525 354.000,326.000 353.812,326.000 353.447 C 326.000 353.142,326.360 352.799,326.800 352.684 C 327.240 352.569,327.600 352.188,327.600 351.837 C 327.600 351.487,327.870 351.200,328.200 351.200 C 328.530 351.200,328.800 350.951,328.800 350.647 C 328.800 350.342,329.160 349.999,329.600 349.884 C 330.040 349.769,330.400 349.388,330.400 349.037 C 330.400 348.687,330.670 348.400,331.000 348.400 C 331.330 348.400,331.600 348.130,331.600 347.800 C 331.600 347.467,331.956 347.200,332.400 347.200 C 332.933 347.200,333.200 346.933,333.200 346.400 C 333.200 345.956,333.467 345.600,333.800 345.600 C 334.133 345.600,334.400 345.244,334.400 344.800 C 334.400 344.152,334.667 344.000,335.800 344.000 C 336.778 344.000,337.200 343.819,337.200 343.400 C 337.200 343.067,337.556 342.800,338.000 342.800 C 338.533 342.800,338.800 342.533,338.800 342.000 C 338.800 341.556,339.067 341.200,339.400 341.200 C 339.730 341.200,340.000 340.930,340.000 340.600 C 340.000 340.267,340.356 340.000,340.800 340.000 C 341.333 340.000,341.600 339.733,341.600 339.200 C 341.600 338.756,341.867 338.400,342.200 338.400 C 342.530 338.400,342.800 338.130,342.800 337.800 C 342.800 337.467,343.156 337.200,343.600 337.200 C 344.248 337.200,344.400 336.933,344.400 335.800 C 344.400 334.822,344.581 334.400,345.000 334.400 C 345.333 334.400,345.600 334.044,345.600 333.600 C 345.600 333.067,345.867 332.800,346.400 332.800 C 346.844 332.800,347.200 332.533,347.200 332.200 C 347.200 331.870,347.470 331.600,347.800 331.600 C 348.133 331.600,348.400 331.244,348.400 330.800 C 348.400 330.267,348.667 330.000,349.200 330.000 C 349.644 330.000,350.000 329.733,350.000 329.400 C 350.000 329.067,350.356 328.800,350.800 328.800 C 351.333 328.800,351.600 328.533,351.600 328.000 C 351.600 327.556,351.867 327.200,352.200 327.200 C 352.530 327.200,352.800 326.951,352.800 326.647 C 352.800 326.342,353.160 325.999,353.600 325.884 C 354.183 325.732,354.400 325.338,354.400 324.437 C 354.400 323.604,354.596 323.200,355.000 323.200 C 355.333 323.200,355.600 322.844,355.600 322.400 C 355.600 321.867,355.867 321.600,356.400 321.600 C 356.844 321.600,357.200 321.333,357.200 321.000 C 357.200 320.670,357.470 320.400,357.800 320.400 C 358.215 320.400,358.400 319.983,358.400 319.047 C 358.400 318.030,358.599 317.641,359.200 317.484 C 359.640 317.369,360.000 316.988,360.000 316.637 C 360.000 316.287,360.270 316.000,360.600 316.000 C 360.930 316.000,361.200 315.751,361.200 315.447 C 361.200 315.142,361.560 314.799,362.000 314.684 C 362.583 314.532,362.800 314.138,362.800 313.237 C 362.800 312.404,362.996 312.000,363.400 312.000 C 363.733 312.000,364.000 311.644,364.000 311.200 C 364.000 310.667,364.267 310.400,364.800 310.400 C 365.448 310.400,365.600 310.133,365.600 309.000 C 365.600 308.022,365.781 307.600,366.200 307.600 C 366.533 307.600,366.800 307.244,366.800 306.800 C 366.800 306.267,367.067 306.000,367.600 306.000 C 368.248 306.000,368.400 305.733,368.400 304.600 C 368.400 303.622,368.581 303.200,369.000 303.200 C 369.419 303.200,369.600 302.778,369.600 301.800 C 369.600 300.667,369.752 300.400,370.400 300.400 C 370.844 300.400,371.200 300.133,371.200 299.800 C 371.200 299.470,371.470 299.200,371.800 299.200 C 372.219 299.200,372.400 298.778,372.400 297.800 C 372.400 296.667,372.552 296.400,373.200 296.400 C 373.848 296.400,374.000 296.133,374.000 295.000 C 374.000 294.022,374.181 293.600,374.600 293.600 C 375.019 293.600,375.200 293.178,375.200 292.200 C 375.200 291.067,375.352 290.800,376.000 290.800 C 376.648 290.800,376.800 290.533,376.800 289.400 C 376.800 288.422,376.981 288.000,377.400 288.000 C 377.819 288.000,378.000 287.578,378.000 286.600 C 378.000 285.467,378.152 285.200,378.800 285.200 C 379.448 285.200,379.600 284.933,379.600 283.800 C 379.600 282.822,379.781 282.400,380.200 282.400 C 380.619 282.400,380.800 281.978,380.800 281.000 C 380.800 279.867,380.952 279.600,381.600 279.600 C 382.242 279.600,382.400 279.333,382.400 278.247 C 382.400 277.230,382.599 276.841,383.200 276.684 C 383.868 276.509,384.000 276.138,384.000 274.437 C 384.000 272.893,384.145 272.400,384.600 272.400 C 385.061 272.400,385.200 271.889,385.200 270.200 C 385.200 268.267,385.297 268.000,386.000 268.000 C 386.693 268.000,386.800 267.733,386.800 266.000 C 386.800 264.489,386.947 264.000,387.400 264.000 C 387.815 264.000,388.000 263.583,388.000 262.647 C 388.000 261.630,388.199 261.241,388.800 261.084 C 389.498 260.902,389.600 260.538,389.600 258.237 C 389.600 256.160,389.727 255.600,390.200 255.600 C 390.676 255.600,390.800 255.022,390.800 252.800 C 390.800 250.267,390.876 250.000,391.600 250.000 C 392.324 250.000,392.400 249.733,392.400 247.200 C 392.400 244.978,392.524 244.400,393.000 244.400 C 393.489 244.400,393.600 243.733,393.600 240.800 C 393.600 237.467,393.659 237.200,394.400 237.200 C 395.149 237.200,395.200 236.933,395.200 233.000 C 395.200 229.533,395.305 228.800,395.800 228.800 C 396.310 228.800,396.400 227.761,396.400 221.847 C 396.400 215.230,396.439 214.883,397.200 214.684 C 398.457 214.355,398.457 188.000,397.200 188.000 C 396.433 188.000,396.400 187.733,396.400 181.600 C 396.400 176.178,396.308 175.200,395.800 175.200 C 395.300 175.200,395.200 174.400,395.200 170.400 C 395.200 165.867,395.156 165.600,394.400 165.600 C 393.659 165.600,393.600 165.333,393.600 162.000 C 393.600 159.067,393.489 158.400,393.000 158.400 C 392.524 158.400,392.400 157.822,392.400 155.600 C 392.400 153.067,392.324 152.800,391.600 152.800 C 390.876 152.800,390.800 152.533,390.800 150.000 C 390.800 147.778,390.676 147.200,390.200 147.200 C 389.739 147.200,389.600 146.689,389.600 145.000 C 389.600 143.067,389.503 142.800,388.800 142.800 C 388.107 142.800,388.000 142.533,388.000 140.800 C 388.000 139.289,387.853 138.800,387.400 138.800 C 386.945 138.800,386.800 138.307,386.800 136.763 C 386.800 135.062,386.668 134.691,386.000 134.516 C 385.338 134.343,385.200 133.970,385.200 132.353 C 385.200 130.884,385.051 130.400,384.600 130.400 C 384.181 130.400,384.000 129.978,384.000 129.000 C 384.000 127.867,383.848 127.600,383.200 127.600 C 382.497 127.600,382.400 127.333,382.400 125.400 C 382.400 123.467,382.303 123.200,381.600 123.200 C 380.952 123.200,380.800 122.933,380.800 121.800 C 380.800 120.822,380.619 120.400,380.200 120.400 C 379.781 120.400,379.600 119.978,379.600 119.000 C 379.600 117.867,379.448 117.600,378.800 117.600 C 378.152 117.600,378.000 117.333,378.000 116.200 C 378.000 115.222,377.819 114.800,377.400 114.800 C 376.981 114.800,376.800 114.378,376.800 113.400 C 376.800 112.267,376.648 112.000,376.000 112.000 C 375.352 112.000,375.200 111.733,375.200 110.600 C 375.200 109.622,375.019 109.200,374.600 109.200 C 374.181 109.200,374.000 108.778,374.000 107.800 C 374.000 106.667,373.848 106.400,373.200 106.400 C 372.667 106.400,372.400 106.133,372.400 105.600 C 372.400 105.156,372.133 104.800,371.800 104.800 C 371.381 104.800,371.200 104.378,371.200 103.400 C 371.200 102.267,371.048 102.000,370.400 102.000 C 369.752 102.000,369.600 101.733,369.600 100.600 C 369.600 99.622,369.419 99.200,369.000 99.200 C 368.670 99.200,368.400 98.930,368.400 98.600 C 368.400 98.267,368.044 98.000,367.600 98.000 C 366.952 98.000,366.800 97.733,366.800 96.600 C 366.800 95.622,366.619 95.200,366.200 95.200 C 365.781 95.200,365.600 94.778,365.600 93.800 C 365.600 92.667,365.448 92.400,364.800 92.400 C 364.267 92.400,364.000 92.133,364.000 91.600 C 364.000 91.160,363.751 90.800,363.447 90.800 C 363.142 90.800,362.799 90.440,362.684 90.000 C 362.569 89.560,362.188 89.200,361.837 89.200 C 361.376 89.200,361.200 88.814,361.200 87.800 C 361.200 86.822,361.019 86.400,360.600 86.400 C 360.270 86.400,360.000 86.130,360.000 85.800 C 360.000 85.467,359.644 85.200,359.200 85.200 C 358.667 85.200,358.400 84.933,358.400 84.400 C 358.400 83.956,358.133 83.600,357.800 83.600 C 357.396 83.600,357.200 83.196,357.200 82.363 C 357.200 81.462,356.983 81.068,356.400 80.916 C 355.960 80.801,355.600 80.458,355.600 80.153 C 355.600 79.849,355.351 79.600,355.047 79.600 C 354.742 79.600,354.399 79.240,354.284 78.800 C 354.169 78.360,353.788 78.000,353.437 78.000 C 352.994 78.000,352.800 77.630,352.800 76.787 C 352.800 76.079,352.551 75.479,352.200 75.345 C 351.870 75.218,351.600 74.864,351.600 74.557 C 351.600 74.251,351.240 74.000,350.800 74.000 C 350.267 74.000,350.000 73.733,350.000 73.200 C 350.000 72.667,349.733 72.400,349.200 72.400 C 348.756 72.400,348.400 72.133,348.400 71.800 C 348.400 71.470,348.130 71.200,347.800 71.200 C 347.467 71.200,347.200 70.844,347.200 70.400 C 347.200 69.867,346.933 69.600,346.400 69.600 C 345.956 69.600,345.600 69.333,345.600 69.000 C 345.600 68.670,345.330 68.400,345.000 68.400 C 344.667 68.400,344.400 68.044,344.400 67.600 C 344.400 67.067,344.133 66.800,343.600 66.800 C 343.156 66.800,342.800 66.533,342.800 66.200 C 342.800 65.870,342.530 65.600,342.200 65.600 C 341.867 65.600,341.600 65.244,341.600 64.800 C 341.600 64.267,341.333 64.000,340.800 64.000 C 340.356 64.000,340.000 63.733,340.000 63.400 C 340.000 63.070,339.730 62.800,339.400 62.800 C 339.067 62.800,338.800 62.444,338.800 62.000 C 338.800 61.467,338.533 61.200,338.000 61.200 C 337.556 61.200,337.200 60.933,337.200 60.600 C 337.200 60.270,336.930 60.000,336.600 60.000 C 336.267 60.000,336.000 59.644,336.000 59.200 C 336.000 58.667,335.733 58.400,335.200 58.400 C 334.756 58.400,334.400 58.133,334.400 57.800 C 334.400 57.470,334.130 57.200,333.800 57.200 C 333.467 57.200,333.200 56.844,333.200 56.400 C 333.200 55.867,332.933 55.600,332.400 55.600 C 331.960 55.600,331.600 55.349,331.600 55.043 C 331.600 54.736,331.330 54.382,331.000 54.255 C 330.670 54.129,330.400 53.749,330.400 53.413 C 330.400 52.979,329.991 52.800,329.000 52.800 C 327.986 52.800,327.600 52.624,327.600 52.163 C 327.600 51.812,327.240 51.431,326.800 51.316 C 326.360 51.201,326.000 50.858,326.000 50.553 C 326.000 50.249,325.730 50.000,325.400 50.000 C 325.070 50.000,324.800 49.713,324.800 49.363 C 324.800 49.012,324.440 48.631,324.000 48.516 C 323.560 48.401,323.200 48.058,323.200 47.753 C 323.200 47.388,322.725 47.200,321.800 47.200 C 320.667 47.200,320.400 47.048,320.400 46.400 C 320.400 45.956,320.133 45.600,319.800 45.600 C 319.470 45.600,319.200 45.330,319.200 45.000 C 319.200 44.567,318.756 44.400,317.600 44.400 C 316.267 44.400,316.000 44.267,316.000 43.600 C 316.000 43.156,315.733 42.800,315.400 42.800 C 315.070 42.800,314.800 42.530,314.800 42.200 C 314.800 41.867,314.444 41.600,314.000 41.600 C 313.467 41.600,313.200 41.333,313.200 40.800 C 313.200 40.152,312.933 40.000,311.800 40.000 C 310.822 40.000,310.400 39.819,310.400 39.400 C 310.400 39.070,310.130 38.800,309.800 38.800 C 309.467 38.800,309.200 38.444,309.200 38.000 C 309.200 37.352,308.933 37.200,307.800 37.200 C 306.822 37.200,306.400 37.019,306.400 36.600 C 306.400 36.181,305.978 36.000,305.000 36.000 C 303.867 36.000,303.600 35.848,303.600 35.200 C 303.600 34.667,303.333 34.400,302.800 34.400 C 302.356 34.400,302.000 34.133,302.000 33.800 C 302.000 33.381,301.578 33.200,300.600 33.200 C 299.467 33.200,299.200 33.048,299.200 32.400 C 299.200 31.752,298.933 31.600,297.800 31.600 C 296.822 31.600,296.400 31.419,296.400 31.000 C 296.400 30.670,296.130 30.400,295.800 30.400 C 295.467 30.400,295.200 30.044,295.200 29.600 C 295.200 28.952,294.933 28.800,293.800 28.800 C 292.822 28.800,292.400 28.619,292.400 28.200 C 292.400 27.739,291.889 27.600,290.200 27.600 C 288.267 27.600,288.000 27.503,288.000 26.800 C 288.000 26.152,287.733 26.000,286.600 26.000 C 285.622 26.000,285.200 25.819,285.200 25.400 C 285.200 24.981,284.778 24.800,283.800 24.800 C 282.667 24.800,282.400 24.648,282.400 24.000 C 282.400 23.352,282.133 23.200,281.000 23.200 C 280.022 23.200,279.600 23.019,279.600 22.600 C 279.600 22.181,279.178 22.000,278.200 22.000 C 277.067 22.000,276.800 21.848,276.800 21.200 C 276.800 20.497,276.533 20.400,274.600 20.400 C 272.911 20.400,272.400 20.261,272.400 19.800 C 272.400 19.381,271.978 19.200,271.000 19.200 C 269.867 19.200,269.600 19.048,269.600 18.400 C 269.600 17.709,269.333 17.600,267.647 17.600 C 266.030 17.600,265.657 17.462,265.484 16.800 C 265.332 16.217,264.938 16.000,264.037 16.000 C 263.204 16.000,262.800 15.804,262.800 15.400 C 262.800 14.924,262.222 14.800,260.000 14.800 C 257.873 14.800,257.200 14.666,257.200 14.243 C 257.200 13.476,256.304 13.200,253.810 13.200 C 252.291 13.200,251.620 13.029,251.455 12.600 C 251.281 12.145,250.544 12.000,248.413 12.000 C 245.867 12.000,245.600 11.924,245.600 11.200 C 245.600 10.451,245.333 10.400,241.400 10.400 C 237.933 10.400,237.200 10.295,237.200 9.800 C 237.200 9.300,236.405 9.200,232.447 9.200 C 228.030 9.200,227.678 9.143,227.484 8.400 C 227.282 7.627,226.938 7.600,217.437 7.600 C 208.960 7.600,207.600 7.517,207.600 7.000 C 207.600 6.500,206.800 6.400,202.800 6.400 C 198.800 6.400,198.000 6.500,198.000 7.000 M11.067 20.667 C 9.739 21.994,9.934 22.000,55.600 22.000 C 100.133 22.000,100.400 22.005,100.400 22.800 C 100.400 23.333,100.667 23.600,101.200 23.600 C 101.733 23.600,102.000 23.333,102.000 22.800 C 102.000 22.360,101.751 22.000,101.447 22.000 C 101.142 22.000,100.799 21.640,100.684 21.200 C 100.473 20.392,11.869 19.865,11.067 20.667 M101.830 25.467 C 101.689 25.834,101.748 26.308,101.960 26.520 C 102.549 27.109,103.600 26.527,103.600 25.613 C 103.600 24.609,102.203 24.494,101.830 25.467 M9.200 73.829 C 9.200 117.642,9.237 120.052,9.900 119.924 C 10.742 119.763,11.050 104.602,11.144 58.756 C 11.204 29.366,11.136 27.600,9.946 27.600 C 9.222 27.600,9.200 28.990,9.200 73.829 M103.272 28.496 C 103.462 29.825,104.800 29.942,104.800 28.629 C 104.800 27.855,104.595 27.600,103.972 27.600 C 103.343 27.600,103.175 27.815,103.272 28.496 M7.600 202.028 L 7.600 216.056 8.484 215.928 C 9.821 215.734,9.917 214.825,9.960 201.926 C 10.002 189.584,9.825 188.000,8.410 188.000 C 7.612 188.000,7.600 188.210,7.600 202.028 M7.867 217.867 C 7.720 218.013,7.618 238.938,7.640 264.367 C 7.662 289.795,7.824 310.150,8.000 309.600 C 8.176 309.050,8.344 308.780,8.372 309.000 C 8.401 309.220,8.618 309.066,8.856 308.658 C 9.434 307.663,10.134 224.547,9.596 220.824 C 9.387 219.381,9.212 218.065,9.208 217.900 C 9.198 217.528,8.229 217.504,7.867 217.867 M61.157 342.394 C 56.548 342.987,57.094 344.000,62.024 344.000 C 64.898 344.000,65.600 343.885,65.600 343.414 C 65.600 342.841,64.373 341.949,63.726 342.052 C 63.547 342.081,62.391 342.235,61.157 342.394 M45.700 343.893 C 44.336 344.016,44.000 344.200,44.000 344.823 C 44.000 345.538,44.304 345.600,47.800 345.600 C 51.262 345.600,51.600 345.533,51.600 344.843 C 51.600 343.619,50.575 343.454,45.700 343.893 M34.000 345.060 C 33.450 345.143,32.235 345.309,31.300 345.430 C 29.960 345.603,29.600 345.813,29.600 346.425 C 29.600 347.137,29.907 347.200,33.400 347.200 C 37.137 347.200,37.200 347.184,37.200 346.247 C 37.200 345.414,36.087 344.643,35.200 344.860 C 35.090 344.887,34.550 344.977,34.000 345.060 M17.205 346.744 C 13.866 347.356,15.249 348.400,19.398 348.400 C 23.170 348.400,23.253 348.380,23.128 347.500 C 22.989 346.520,20.298 346.177,17.205 346.744 " stroke="none" fill="#fbd336" fill-rule="evenodd"></path><path id="path1" d="M10.578 24.300 C 11.658 42.369,11.147 119.584,9.945 119.899 C 9.165 120.102,9.097 163.595,9.817 200.800 C 9.977 209.066,9.905 213.274,9.578 214.850 C 9.231 216.526,9.224 217.957,9.550 220.450 C 10.457 227.393,9.396 309.616,8.407 309.004 C 7.733 308.588,7.600 312.020,7.600 329.850 L 7.600 348.400 11.553 348.400 C 15.060 348.400,15.529 348.317,15.700 347.662 C 15.981 346.585,22.399 345.828,23.000 346.800 C 23.517 347.636,29.600 347.290,29.600 346.425 C 29.600 345.207,32.373 344.944,40.100 345.431 C 43.796 345.664,44.000 345.636,44.000 344.890 C 44.000 343.854,46.377 343.604,53.363 343.904 C 57.224 344.070,58.453 344.009,58.239 343.662 C 57.602 342.633,62.343 342.024,66.308 342.626 C 67.364 342.787,68.222 342.713,68.559 342.434 C 69.156 341.938,75.542 341.059,83.000 340.446 C 85.640 340.229,88.520 339.815,89.400 339.525 L 91.000 338.999 91.286 330.999 C 91.444 326.600,91.774 318.050,92.020 312.000 C 92.265 305.950,92.707 293.710,93.000 284.800 C 93.294 275.890,93.730 263.830,93.970 258.000 C 94.943 234.303,95.226 226.811,95.622 214.200 C 96.421 188.810,96.595 187.661,98.902 192.481 C 100.345 195.495,103.840 202.873,105.496 206.400 C 107.249 210.134,110.771 217.568,112.792 221.800 C 115.033 226.492,118.112 233.000,119.605 236.200 C 120.323 237.740,121.895 241.070,123.099 243.600 C 124.302 246.130,125.920 249.550,126.695 251.200 C 127.470 252.850,129.084 256.270,130.281 258.800 C 131.478 261.330,132.879 264.300,133.394 265.400 C 133.908 266.500,135.315 269.470,136.518 272.000 C 137.722 274.530,139.553 278.400,140.588 280.600 C 141.622 282.800,142.986 285.680,143.618 287.000 C 144.250 288.320,144.954 289.850,145.183 290.400 C 145.411 290.950,145.755 291.670,145.946 292.000 C 146.137 292.330,146.919 293.950,147.683 295.600 C 148.447 297.250,149.717 299.950,150.504 301.600 C 151.292 303.250,152.651 306.130,153.524 308.000 C 155.002 311.164,156.158 313.609,160.949 323.700 C 161.967 325.845,163.624 329.355,164.631 331.500 C 169.882 342.686,172.103 347.217,172.437 347.423 C 172.587 347.516,177.366 347.325,183.055 346.998 C 188.745 346.672,196.010 346.401,199.200 346.396 C 202.390 346.391,209.661 346.125,215.357 345.805 C 221.054 345.485,230.018 345.100,235.277 344.948 C 243.718 344.706,244.883 344.593,245.206 343.989 C 245.643 343.172,246.244 332.138,246.806 314.600 C 247.590 290.140,248.004 278.549,248.413 269.600 C 248.639 264.650,248.994 254.480,249.201 247.000 C 249.408 239.520,249.769 230.288,250.004 226.484 C 250.238 222.680,250.597 213.140,250.801 205.284 C 251.005 197.428,251.356 187.850,251.580 184.000 C 251.804 180.150,252.180 170.520,252.416 162.600 C 252.651 154.680,253.006 145.320,253.203 141.800 C 253.401 138.280,253.571 132.610,253.580 129.200 C 253.589 125.790,253.866 117.870,254.194 111.600 C 254.523 105.330,254.972 94.350,255.192 87.200 C 255.412 80.050,255.767 69.880,255.981 64.600 C 256.195 59.320,256.562 49.600,256.796 43.000 C 257.030 36.400,257.319 29.110,257.437 26.800 C 257.736 20.941,258.677 21.375,246.935 21.961 C 241.471 22.233,232.680 22.614,227.400 22.807 C 205.016 23.623,194.749 24.051,184.000 24.617 C 177.730 24.947,171.329 25.214,169.776 25.209 C 168.113 25.204,166.690 25.405,166.313 25.700 C 165.680 26.195,164.791 93.875,164.789 141.800 C 164.788 158.394,164.716 158.750,162.395 153.774 C 161.478 151.808,160.001 148.670,159.114 146.800 C 158.226 144.930,156.608 141.510,155.517 139.200 C 154.426 136.890,152.937 133.740,152.206 132.200 C 151.476 130.660,149.940 127.420,148.793 125.000 C 147.646 122.580,145.850 118.800,144.802 116.600 C 143.753 114.400,142.144 110.980,141.225 109.000 C 140.307 107.020,138.862 103.960,138.015 102.200 C 137.168 100.440,135.540 97.020,134.398 94.600 C 133.255 92.180,131.717 88.940,130.979 87.400 C 129.176 83.635,125.332 75.505,123.035 70.600 C 122.005 68.400,120.540 65.295,119.781 63.700 C 116.790 57.420,115.554 54.814,113.376 50.200 C 111.374 45.960,107.481 37.761,106.315 35.331 C 106.085 34.853,106.011 34.010,106.150 33.459 C 106.357 32.630,106.244 32.433,105.501 32.328 C 104.760 32.222,104.617 31.977,104.695 30.945 C 104.770 29.961,104.609 29.643,103.946 29.470 C 103.226 29.282,103.139 29.049,103.356 27.892 C 103.586 26.669,103.522 26.538,102.705 26.568 C 101.898 26.596,101.814 26.438,101.931 25.100 C 102.045 23.806,101.949 23.600,101.231 23.600 C 100.667 23.600,100.400 23.343,100.400 22.800 C 100.400 22.005,100.133 22.000,55.553 22.000 C 10.904 22.000,10.708 21.996,10.916 21.200 C 11.031 20.760,10.950 20.400,10.735 20.400 C 10.492 20.400,10.433 21.874,10.578 24.300 " stroke="none" fill="#040404" fill-rule="evenodd"></path></g></svg>