<svg id="svg" version="1.1" xmlns="http://www.w3.org/2000/svg" xmlns:xlink="http://www.w3.org/1999/xlink" width="400" height="400" viewBox="0, 0, 400,400"><g id="svgg"><path id="path0" d="M103.672 44.645 C 101.154 45.745,100.658 47.776,101.005 55.561 C 101.544 67.639,101.442 84.251,100.805 88.200 C 100.485 90.180,100.248 92.520,100.278 93.400 C 100.308 94.280,100.441 101.570,100.573 109.600 C 100.705 117.630,100.990 126.415,101.207 129.122 C 101.828 136.899,101.689 152.645,100.929 160.481 C 100.131 168.715,100.133 168.546,100.758 172.600 C 101.521 177.554,102.124 189.145,101.975 196.000 C 101.792 204.430,101.794 223.752,101.979 230.600 C 102.062 233.680,101.901 242.950,101.621 251.200 C 101.341 259.450,101.144 269.170,101.184 272.800 C 101.303 283.652,101.277 292.051,101.067 311.000 C 100.832 332.297,100.898 332.786,104.701 337.760 C 107.995 342.069,112.994 343.626,124.400 343.898 C 141.726 344.312,149.404 340.833,151.541 331.600 C 152.335 328.166,152.897 322.187,152.667 319.600 C 152.326 315.743,151.695 289.835,151.369 266.200 C 151.084 245.583,151.400 233.292,152.455 224.000 C 152.769 221.235,152.764 219.383,152.437 217.200 C 151.725 212.439,151.028 171.781,151.634 170.317 C 153.422 166.001,157.105 168.473,163.163 178.054 C 164.744 180.554,167.301 184.400,168.845 186.600 C 171.571 190.486,176.936 200.888,180.604 209.400 C 182.326 213.397,183.652 215.950,184.864 217.607 C 189.506 223.949,190.696 225.719,192.116 228.400 C 192.990 230.050,194.042 231.878,194.453 232.462 C 194.864 233.046,195.200 233.641,195.200 233.784 C 195.200 233.927,195.902 235.077,196.759 236.340 C 197.617 237.603,199.223 240.375,200.328 242.501 C 202.757 247.172,204.309 249.499,206.923 252.388 C 208.012 253.592,210.365 256.719,212.151 259.336 C 213.938 261.954,216.712 266.009,218.315 268.348 C 219.919 270.687,221.936 273.860,222.799 275.400 C 223.661 276.940,225.005 279.100,225.785 280.200 C 231.696 288.531,233.296 291.063,236.526 297.200 C 238.578 301.098,240.559 304.192,244.592 309.800 C 245.858 311.560,246.992 313.270,247.112 313.600 C 247.232 313.930,247.633 314.650,248.003 315.200 C 248.374 315.750,249.285 317.370,250.028 318.800 C 253.224 324.947,256.753 329.216,262.400 333.764 C 266.075 336.724,270.808 339.415,274.000 340.360 C 274.990 340.653,276.339 341.092,276.998 341.335 C 277.770 341.621,281.959 341.767,288.798 341.746 C 307.121 341.691,307.352 341.399,307.982 317.400 C 308.172 310.140,308.564 302.670,308.852 300.800 C 309.400 297.245,309.410 295.907,308.980 282.200 C 308.798 276.395,308.880 272.070,309.247 268.200 C 309.538 265.120,309.792 257.290,309.812 250.800 C 309.845 239.692,310.493 222.953,310.999 220.122 C 311.125 219.419,311.028 217.259,310.784 215.322 C 310.204 210.724,310.199 201.528,310.775 199.045 C 311.087 197.698,311.225 189.440,311.219 172.515 C 311.213 157.515,311.366 147.244,311.611 146.152 C 312.181 143.606,312.250 122.821,311.699 119.462 C 311.336 117.250,311.371 115.905,311.882 112.462 C 312.665 107.182,313.028 65.122,312.327 60.800 C 310.746 51.038,307.012 46.325,299.321 44.384 C 294.192 43.090,273.431 45.826,268.705 48.419 C 268.323 48.629,267.758 48.800,267.450 48.800 C 265.119 48.800,264.000 56.526,264.062 72.200 C 264.079 76.380,263.883 81.285,263.627 83.100 C 263.277 85.586,263.274 87.214,263.617 89.700 C 264.180 93.776,264.195 104.431,263.643 108.194 C 263.358 110.140,263.369 112.969,263.679 117.510 C 264.125 124.054,263.875 128.042,262.727 132.670 C 262.250 134.594,262.476 139.263,263.256 143.600 C 263.905 147.208,263.886 150.627,263.164 160.400 C 262.620 167.761,262.479 177.184,262.795 185.200 C 262.886 187.510,262.744 192.460,262.479 196.200 C 262.215 199.940,261.816 206.240,261.594 210.200 C 260.895 222.647,260.777 223.423,259.600 223.267 C 255.964 222.785,251.308 217.403,246.466 208.087 C 243.447 202.280,242.399 200.677,237.734 194.726 C 235.753 192.200,226.400 177.501,226.400 176.914 C 226.400 176.059,222.032 167.939,220.572 166.081 C 219.586 164.826,217.819 162.573,216.644 161.074 C 215.469 159.575,214.264 157.865,213.966 157.274 C 213.668 156.683,212.924 155.448,212.312 154.528 C 211.701 153.608,211.200 152.743,211.200 152.606 C 211.200 152.469,210.507 151.331,209.659 150.078 C 208.111 147.789,204.800 142.421,204.800 142.200 C 204.800 142.135,204.080 140.897,203.200 139.448 C 202.320 138.000,201.600 136.704,201.600 136.569 C 201.600 136.434,201.261 135.846,200.847 135.262 C 199.923 133.959,198.861 132.077,196.411 127.400 C 195.374 125.420,193.041 121.571,191.228 118.847 C 189.414 116.122,186.490 111.181,184.729 107.867 C 181.174 101.172,180.103 99.493,176.762 95.374 C 174.402 92.465,173.728 91.403,171.191 86.600 C 169.127 82.690,167.465 80.057,163.998 75.200 C 162.349 72.890,160.089 69.380,158.975 67.400 C 148.654 49.052,145.843 46.152,137.000 44.728 C 132.702 44.035,105.223 43.967,103.672 44.645 " stroke="none" fill="#040404" fill-rule="evenodd"></path><path id="path1" d="M197.200 11.200 C 197.200 11.448,195.067 11.600,191.600 11.600 C 188.133 11.600,186.000 11.752,186.000 12.000 C 186.000 12.237,184.533 12.400,182.400 12.400 C 180.267 12.400,178.800 12.563,178.800 12.800 C 178.800 13.037,177.333 13.200,175.200 13.200 C 173.067 13.200,171.600 13.363,171.600 13.600 C 171.600 13.820,170.880 14.000,170.000 14.000 C 169.120 14.000,168.400 14.180,168.400 14.400 C 168.400 14.620,167.680 14.800,166.800 14.800 C 165.920 14.800,165.200 14.980,165.200 15.200 C 165.200 15.420,164.300 15.600,163.200 15.600 C 162.100 15.600,161.200 15.780,161.200 16.000 C 161.200 16.220,160.480 16.400,159.600 16.400 C 158.720 16.400,158.000 16.580,158.000 16.800 C 158.000 17.020,157.280 17.200,156.400 17.200 C 155.520 17.200,154.800 17.380,154.800 17.600 C 154.800 17.820,154.080 18.000,153.200 18.000 C 152.320 18.000,151.600 18.180,151.600 18.400 C 151.600 18.620,151.060 18.800,150.400 18.800 C 149.740 18.800,149.200 18.980,149.200 19.200 C 149.200 19.420,148.660 19.600,148.000 19.600 C 147.340 19.600,146.800 19.780,146.800 20.000 C 146.800 20.220,146.260 20.400,145.600 20.400 C 144.940 20.400,144.400 20.580,144.400 20.800 C 144.400 21.020,143.860 21.200,143.200 21.200 C 142.540 21.200,142.000 21.380,142.000 21.600 C 142.000 21.820,141.460 22.000,140.800 22.000 C 140.140 22.000,139.600 22.180,139.600 22.400 C 139.600 22.620,139.240 22.800,138.800 22.800 C 138.360 22.800,138.000 22.980,138.000 23.200 C 138.000 23.420,137.460 23.600,136.800 23.600 C 136.140 23.600,135.600 23.780,135.600 24.000 C 135.600 24.220,135.060 24.400,134.400 24.400 C 133.740 24.400,133.200 24.580,133.200 24.800 C 133.200 25.020,132.840 25.200,132.400 25.200 C 131.960 25.200,131.600 25.380,131.600 25.600 C 131.600 25.820,131.240 26.000,130.800 26.000 C 130.360 26.000,130.000 26.180,130.000 26.400 C 130.000 26.620,129.460 26.800,128.800 26.800 C 128.140 26.800,127.600 26.980,127.600 27.200 C 127.600 27.420,127.240 27.600,126.800 27.600 C 126.360 27.600,126.000 27.780,126.000 28.000 C 126.000 28.220,125.640 28.400,125.200 28.400 C 124.760 28.400,124.400 28.580,124.400 28.800 C 124.400 29.020,124.040 29.200,123.600 29.200 C 123.160 29.200,122.800 29.380,122.800 29.600 C 122.800 29.820,122.440 30.000,122.000 30.000 C 121.560 30.000,121.200 30.180,121.200 30.400 C 121.200 30.620,120.840 30.800,120.400 30.800 C 119.960 30.800,119.600 30.980,119.600 31.200 C 119.600 31.420,119.240 31.600,118.800 31.600 C 118.360 31.600,118.000 31.780,118.000 32.000 C 118.000 32.220,117.640 32.400,117.200 32.400 C 116.760 32.400,116.400 32.580,116.400 32.800 C 116.400 33.020,116.040 33.200,115.600 33.200 C 115.160 33.200,114.800 33.380,114.800 33.600 C 114.800 33.820,114.440 34.000,114.000 34.000 C 113.560 34.000,113.200 34.180,113.200 34.400 C 113.200 34.620,112.880 34.800,112.488 34.800 C 112.097 34.800,111.517 35.160,111.200 35.600 C 110.883 36.040,110.303 36.400,109.912 36.400 C 109.520 36.400,109.200 36.580,109.200 36.800 C 109.200 37.020,108.840 37.200,108.400 37.200 C 107.960 37.200,107.600 37.380,107.600 37.600 C 107.600 37.820,107.280 38.000,106.888 38.000 C 106.497 38.000,105.917 38.360,105.600 38.800 C 105.283 39.240,104.743 39.600,104.400 39.600 C 104.057 39.600,103.517 39.960,103.200 40.400 C 102.883 40.840,102.303 41.200,101.912 41.200 C 101.520 41.200,101.200 41.380,101.200 41.600 C 101.200 41.820,100.912 42.000,100.560 42.000 C 100.209 42.000,99.417 42.540,98.800 43.200 C 98.183 43.860,97.431 44.400,97.128 44.400 C 96.825 44.400,96.317 44.760,96.000 45.200 C 95.683 45.640,95.143 46.000,94.800 46.000 C 94.457 46.000,93.917 46.360,93.600 46.800 C 93.283 47.240,92.779 47.600,92.480 47.600 C 92.182 47.600,91.246 48.320,90.400 49.200 C 89.554 50.080,88.651 50.800,88.392 50.800 C 88.133 50.800,87.417 51.340,86.800 52.000 C 86.183 52.660,85.471 53.200,85.217 53.200 C 84.963 53.200,83.696 54.280,82.400 55.600 C 81.104 56.920,79.853 58.000,79.620 58.000 C 79.063 58.000,62.000 75.067,62.000 75.624 C 62.000 75.859,61.100 76.929,60.000 78.000 C 58.900 79.071,58.000 80.154,58.000 80.405 C 58.000 80.657,57.280 81.554,56.400 82.400 C 55.520 83.246,54.800 84.149,54.800 84.408 C 54.800 84.667,54.260 85.383,53.600 86.000 C 52.940 86.617,52.400 87.337,52.400 87.600 C 52.400 87.863,51.860 88.583,51.200 89.200 C 50.540 89.817,50.000 90.569,50.000 90.872 C 50.000 91.175,49.640 91.683,49.200 92.000 C 48.760 92.317,48.400 92.825,48.400 93.128 C 48.400 93.431,47.860 94.183,47.200 94.800 C 46.540 95.417,46.000 96.209,46.000 96.560 C 46.000 96.912,45.820 97.200,45.600 97.200 C 45.380 97.200,45.200 97.520,45.200 97.912 C 45.200 98.303,44.840 98.883,44.400 99.200 C 43.960 99.517,43.600 100.057,43.600 100.400 C 43.600 100.743,43.240 101.283,42.800 101.600 C 42.360 101.917,42.000 102.497,42.000 102.888 C 42.000 103.280,41.820 103.600,41.600 103.600 C 41.380 103.600,41.200 103.960,41.200 104.400 C 41.200 104.840,41.020 105.200,40.800 105.200 C 40.580 105.200,40.400 105.520,40.400 105.912 C 40.400 106.303,40.040 106.883,39.600 107.200 C 39.160 107.517,38.800 108.097,38.800 108.488 C 38.800 108.880,38.620 109.200,38.400 109.200 C 38.180 109.200,38.000 109.560,38.000 110.000 C 38.000 110.440,37.820 110.800,37.600 110.800 C 37.380 110.800,37.200 111.160,37.200 111.600 C 37.200 112.040,37.020 112.400,36.800 112.400 C 36.580 112.400,36.400 112.760,36.400 113.200 C 36.400 113.640,36.220 114.000,36.000 114.000 C 35.780 114.000,35.600 114.360,35.600 114.800 C 35.600 115.240,35.420 115.600,35.200 115.600 C 34.980 115.600,34.800 115.960,34.800 116.400 C 34.800 116.840,34.620 117.200,34.400 117.200 C 34.180 117.200,34.000 117.560,34.000 118.000 C 34.000 118.440,33.820 118.800,33.600 118.800 C 33.380 118.800,33.200 119.160,33.200 119.600 C 33.200 120.040,33.020 120.400,32.800 120.400 C 32.580 120.400,32.400 120.940,32.400 121.600 C 32.400 122.260,32.220 122.800,32.000 122.800 C 31.780 122.800,31.600 123.160,31.600 123.600 C 31.600 124.040,31.420 124.400,31.200 124.400 C 30.980 124.400,30.800 124.760,30.800 125.200 C 30.800 125.640,30.620 126.000,30.400 126.000 C 30.180 126.000,30.000 126.360,30.000 126.800 C 30.000 127.240,29.820 127.600,29.600 127.600 C 29.380 127.600,29.200 128.140,29.200 128.800 C 29.200 129.460,29.020 130.000,28.800 130.000 C 28.580 130.000,28.400 130.360,28.400 130.800 C 28.400 131.240,28.220 131.600,28.000 131.600 C 27.780 131.600,27.600 132.140,27.600 132.800 C 27.600 133.460,27.420 134.000,27.200 134.000 C 26.980 134.000,26.800 134.540,26.800 135.200 C 26.800 135.860,26.620 136.400,26.400 136.400 C 26.180 136.400,26.000 136.940,26.000 137.600 C 26.000 138.260,25.820 138.800,25.600 138.800 C 25.380 138.800,25.200 139.340,25.200 140.000 C 25.200 140.660,25.020 141.200,24.800 141.200 C 24.580 141.200,24.400 141.740,24.400 142.400 C 24.400 143.060,24.220 143.600,24.000 143.600 C 23.780 143.600,23.600 144.140,23.600 144.800 C 23.600 145.460,23.420 146.000,23.200 146.000 C 22.980 146.000,22.800 146.720,22.800 147.600 C 22.800 148.480,22.620 149.200,22.400 149.200 C 22.180 149.200,22.000 149.740,22.000 150.400 C 22.000 151.060,21.820 151.600,21.600 151.600 C 21.380 151.600,21.200 152.320,21.200 153.200 C 21.200 154.080,21.020 154.800,20.800 154.800 C 20.580 154.800,20.400 155.520,20.400 156.400 C 20.400 157.280,20.220 158.000,20.000 158.000 C 19.780 158.000,19.600 158.900,19.600 160.000 C 19.600 161.100,19.420 162.000,19.200 162.000 C 18.980 162.000,18.800 162.900,18.800 164.000 C 18.800 165.100,18.620 166.000,18.400 166.000 C 18.178 166.000,18.000 167.067,18.000 168.400 C 18.000 169.733,17.822 170.800,17.600 170.800 C 17.367 170.800,17.200 172.133,17.200 174.000 C 17.200 175.867,17.033 177.200,16.800 177.200 C 16.560 177.200,16.400 178.800,16.400 181.200 C 16.400 183.600,16.240 185.200,16.000 185.200 C 15.741 185.200,15.600 190.400,15.600 200.000 C 15.600 209.600,15.741 214.800,16.000 214.800 C 16.240 214.800,16.400 216.400,16.400 218.800 C 16.400 221.200,16.560 222.800,16.800 222.800 C 17.033 222.800,17.200 224.133,17.200 226.000 C 17.200 227.867,17.367 229.200,17.600 229.200 C 17.820 229.200,18.000 230.100,18.000 231.200 C 18.000 232.300,18.180 233.200,18.400 233.200 C 18.622 233.200,18.800 234.267,18.800 235.600 C 18.800 236.933,18.978 238.000,19.200 238.000 C 19.420 238.000,19.600 238.900,19.600 240.000 C 19.600 241.100,19.780 242.000,20.000 242.000 C 20.220 242.000,20.400 242.720,20.400 243.600 C 20.400 244.480,20.580 245.200,20.800 245.200 C 21.020 245.200,21.200 245.920,21.200 246.800 C 21.200 247.680,21.380 248.400,21.600 248.400 C 21.820 248.400,22.000 248.940,22.000 249.600 C 22.000 250.260,22.180 250.800,22.400 250.800 C 22.620 250.800,22.800 251.520,22.800 252.400 C 22.800 253.280,22.980 254.000,23.200 254.000 C 23.420 254.000,23.600 254.540,23.600 255.200 C 23.600 255.860,23.780 256.400,24.000 256.400 C 24.220 256.400,24.400 256.940,24.400 257.600 C 24.400 258.260,24.580 258.800,24.800 258.800 C 25.020 258.800,25.200 259.340,25.200 260.000 C 25.200 260.660,25.380 261.200,25.600 261.200 C 25.820 261.200,26.000 261.740,26.000 262.400 C 26.000 263.060,26.180 263.600,26.400 263.600 C 26.620 263.600,26.800 264.140,26.800 264.800 C 26.800 265.460,26.980 266.000,27.200 266.000 C 27.420 266.000,27.600 266.540,27.600 267.200 C 27.600 267.860,27.780 268.400,28.000 268.400 C 28.220 268.400,28.400 268.760,28.400 269.200 C 28.400 269.640,28.580 270.000,28.800 270.000 C 29.020 270.000,29.200 270.540,29.200 271.200 C 29.200 271.860,29.380 272.400,29.600 272.400 C 29.820 272.400,30.000 272.760,30.000 273.200 C 30.000 273.640,30.180 274.000,30.400 274.000 C 30.620 274.000,30.800 274.360,30.800 274.800 C 30.800 275.240,30.980 275.600,31.200 275.600 C 31.420 275.600,31.600 275.960,31.600 276.400 C 31.600 276.840,31.780 277.200,32.000 277.200 C 32.220 277.200,32.400 277.740,32.400 278.400 C 32.400 279.060,32.580 279.600,32.800 279.600 C 33.020 279.600,33.200 279.960,33.200 280.400 C 33.200 280.840,33.380 281.200,33.600 281.200 C 33.820 281.200,34.000 281.560,34.000 282.000 C 34.000 282.440,34.180 282.800,34.400 282.800 C 34.620 282.800,34.800 283.160,34.800 283.600 C 34.800 284.040,34.980 284.400,35.200 284.400 C 35.420 284.400,35.600 284.760,35.600 285.200 C 35.600 285.640,35.780 286.000,36.000 286.000 C 36.220 286.000,36.400 286.360,36.400 286.800 C 36.400 287.240,36.580 287.600,36.800 287.600 C 37.020 287.600,37.200 287.960,37.200 288.400 C 37.200 288.840,37.380 289.200,37.600 289.200 C 37.820 289.200,38.000 289.520,38.000 289.912 C 38.000 290.303,38.360 290.883,38.800 291.200 C 39.240 291.517,39.600 292.097,39.600 292.488 C 39.600 292.880,39.780 293.200,40.000 293.200 C 40.220 293.200,40.400 293.560,40.400 294.000 C 40.400 294.440,40.580 294.800,40.800 294.800 C 41.020 294.800,41.200 295.160,41.200 295.600 C 41.200 296.040,41.380 296.400,41.600 296.400 C 41.820 296.400,42.000 296.720,42.000 297.112 C 42.000 297.503,42.360 298.083,42.800 298.400 C 43.240 298.717,43.600 299.257,43.600 299.600 C 43.600 299.943,43.960 300.483,44.400 300.800 C 44.840 301.117,45.200 301.697,45.200 302.088 C 45.200 302.480,45.380 302.800,45.600 302.800 C 45.820 302.800,46.000 303.088,46.000 303.440 C 46.000 303.791,46.540 304.583,47.200 305.200 C 47.860 305.817,48.400 306.569,48.400 306.872 C 48.400 307.175,48.760 307.683,49.200 308.000 C 49.640 308.317,50.000 308.857,50.000 309.200 C 50.000 309.543,50.360 310.083,50.800 310.400 C 51.240 310.717,51.600 311.221,51.600 311.520 C 51.600 311.818,52.320 312.754,53.200 313.600 C 54.080 314.446,54.800 315.349,54.800 315.608 C 54.800 315.867,55.340 316.583,56.000 317.200 C 56.660 317.817,57.200 318.530,57.200 318.786 C 57.200 319.042,58.100 320.129,59.200 321.200 C 60.300 322.271,61.200 323.341,61.200 323.576 C 61.200 324.133,79.063 342.000,79.620 342.000 C 79.853 342.000,81.104 343.080,82.400 344.400 C 83.696 345.720,84.963 346.800,85.217 346.800 C 85.471 346.800,86.183 347.340,86.800 348.000 C 87.417 348.660,88.133 349.200,88.392 349.200 C 88.651 349.200,89.554 349.920,90.400 350.800 C 91.246 351.680,92.182 352.400,92.480 352.400 C 92.779 352.400,93.283 352.760,93.600 353.200 C 93.917 353.640,94.457 354.000,94.800 354.000 C 95.143 354.000,95.683 354.360,96.000 354.800 C 96.317 355.240,96.825 355.600,97.128 355.600 C 97.431 355.600,98.183 356.140,98.800 356.800 C 99.417 357.460,100.209 358.000,100.560 358.000 C 100.912 358.000,101.200 358.180,101.200 358.400 C 101.200 358.620,101.520 358.800,101.912 358.800 C 102.303 358.800,102.883 359.160,103.200 359.600 C 103.517 360.040,104.057 360.400,104.400 360.400 C 104.743 360.400,105.283 360.760,105.600 361.200 C 105.917 361.640,106.497 362.000,106.888 362.000 C 107.280 362.000,107.600 362.180,107.600 362.400 C 107.600 362.620,107.960 362.800,108.400 362.800 C 108.840 362.800,109.200 362.980,109.200 363.200 C 109.200 363.420,109.520 363.600,109.912 363.600 C 110.303 363.600,110.883 363.960,111.200 364.400 C 111.517 364.840,112.097 365.200,112.488 365.200 C 112.880 365.200,113.200 365.380,113.200 365.600 C 113.200 365.820,113.560 366.000,114.000 366.000 C 114.440 366.000,114.800 366.180,114.800 366.400 C 114.800 366.620,115.160 366.800,115.600 366.800 C 116.040 366.800,116.400 366.980,116.400 367.200 C 116.400 367.420,116.760 367.600,117.200 367.600 C 117.640 367.600,118.000 367.780,118.000 368.000 C 118.000 368.220,118.360 368.400,118.800 368.400 C 119.240 368.400,119.600 368.580,119.600 368.800 C 119.600 369.020,119.960 369.200,120.400 369.200 C 120.840 369.200,121.200 369.380,121.200 369.600 C 121.200 369.820,121.560 370.000,122.000 370.000 C 122.440 370.000,122.800 370.180,122.800 370.400 C 122.800 370.620,123.160 370.800,123.600 370.800 C 124.040 370.800,124.400 370.980,124.400 371.200 C 124.400 371.420,124.760 371.600,125.200 371.600 C 125.640 371.600,126.000 371.780,126.000 372.000 C 126.000 372.220,126.360 372.400,126.800 372.400 C 127.240 372.400,127.600 372.580,127.600 372.800 C 127.600 373.020,128.140 373.200,128.800 373.200 C 129.460 373.200,130.000 373.380,130.000 373.600 C 130.000 373.820,130.360 374.000,130.800 374.000 C 131.240 374.000,131.600 374.180,131.600 374.400 C 131.600 374.620,131.960 374.800,132.400 374.800 C 132.840 374.800,133.200 374.980,133.200 375.200 C 133.200 375.420,133.740 375.600,134.400 375.600 C 135.060 375.600,135.600 375.780,135.600 376.000 C 135.600 376.220,136.140 376.400,136.800 376.400 C 137.460 376.400,138.000 376.580,138.000 376.800 C 138.000 377.020,138.360 377.200,138.800 377.200 C 139.240 377.200,139.600 377.380,139.600 377.600 C 139.600 377.820,140.140 378.000,140.800 378.000 C 141.460 378.000,142.000 378.180,142.000 378.400 C 142.000 378.620,142.540 378.800,143.200 378.800 C 143.860 378.800,144.400 378.980,144.400 379.200 C 144.400 379.420,144.940 379.600,145.600 379.600 C 146.260 379.600,146.800 379.780,146.800 380.000 C 146.800 380.220,147.340 380.400,148.000 380.400 C 148.660 380.400,149.200 380.580,149.200 380.800 C 149.200 381.020,149.920 381.200,150.800 381.200 C 151.680 381.200,152.400 381.380,152.400 381.600 C 152.400 381.820,153.120 382.000,154.000 382.000 C 154.880 382.000,155.600 382.180,155.600 382.400 C 155.600 382.620,156.140 382.800,156.800 382.800 C 157.460 382.800,158.000 382.980,158.000 383.200 C 158.000 383.420,158.720 383.600,159.600 383.600 C 160.480 383.600,161.200 383.780,161.200 384.000 C 161.200 384.220,162.100 384.400,163.200 384.400 C 164.300 384.400,165.200 384.580,165.200 384.800 C 165.200 385.020,165.920 385.200,166.800 385.200 C 167.680 385.200,168.400 385.380,168.400 385.600 C 168.400 385.822,169.467 386.000,170.800 386.000 C 172.133 386.000,173.200 386.178,173.200 386.400 C 173.200 386.622,174.267 386.800,175.600 386.800 C 176.933 386.800,178.000 386.978,178.000 387.200 C 178.000 387.433,179.333 387.600,181.200 387.600 C 183.067 387.600,184.400 387.767,184.400 388.000 C 184.400 388.250,186.800 388.400,190.800 388.400 C 194.800 388.400,197.200 388.550,197.200 388.800 C 197.200 389.052,199.867 389.200,204.400 389.200 C 208.933 389.200,211.600 389.052,211.600 388.800 C 211.600 388.550,214.000 388.400,218.000 388.400 C 222.000 388.400,224.400 388.250,224.400 388.000 C 224.400 387.771,225.600 387.600,227.200 387.600 C 228.800 387.600,230.000 387.429,230.000 387.200 C 230.000 386.971,231.200 386.800,232.800 386.800 C 234.400 386.800,235.600 386.629,235.600 386.400 C 235.600 386.180,236.500 386.000,237.600 386.000 C 238.700 386.000,239.600 385.820,239.600 385.600 C 239.600 385.380,240.500 385.200,241.600 385.200 C 242.700 385.200,243.600 385.020,243.600 384.800 C 243.600 384.580,244.320 384.400,245.200 384.400 C 246.080 384.400,246.800 384.220,246.800 384.000 C 246.800 383.780,247.700 383.600,248.800 383.600 C 249.900 383.600,250.800 383.420,250.800 383.200 C 250.800 382.980,251.340 382.800,252.000 382.800 C 252.660 382.800,253.200 382.620,253.200 382.400 C 253.200 382.180,253.920 382.000,254.800 382.000 C 255.680 382.000,256.400 381.820,256.400 381.600 C 256.400 381.380,256.940 381.200,257.600 381.200 C 258.260 381.200,258.800 381.020,258.800 380.800 C 258.800 380.580,259.340 380.400,260.000 380.400 C 260.660 380.400,261.200 380.220,261.200 380.000 C 261.200 379.780,261.740 379.600,262.400 379.600 C 263.060 379.600,263.600 379.420,263.600 379.200 C 263.600 378.980,264.140 378.800,264.800 378.800 C 265.460 378.800,266.000 378.620,266.000 378.400 C 266.000 378.180,266.540 378.000,267.200 378.000 C 267.860 378.000,268.400 377.820,268.400 377.600 C 268.400 377.380,268.940 377.200,269.600 377.200 C 270.260 377.200,270.800 377.020,270.800 376.800 C 270.800 376.580,271.340 376.400,272.000 376.400 C 272.660 376.400,273.200 376.220,273.200 376.000 C 273.200 375.780,273.560 375.600,274.000 375.600 C 274.440 375.600,274.800 375.420,274.800 375.200 C 274.800 374.980,275.340 374.800,276.000 374.800 C 276.660 374.800,277.200 374.620,277.200 374.400 C 277.200 374.180,277.560 374.000,278.000 374.000 C 278.440 374.000,278.800 373.820,278.800 373.600 C 278.800 373.380,279.160 373.200,279.600 373.200 C 280.040 373.200,280.400 373.020,280.400 372.800 C 280.400 372.580,280.940 372.400,281.600 372.400 C 282.260 372.400,282.800 372.220,282.800 372.000 C 282.800 371.780,283.160 371.600,283.600 371.600 C 284.040 371.600,284.400 371.420,284.400 371.200 C 284.400 370.980,284.760 370.800,285.200 370.800 C 285.640 370.800,286.000 370.620,286.000 370.400 C 286.000 370.180,286.360 370.000,286.800 370.000 C 287.240 370.000,287.600 369.820,287.600 369.600 C 287.600 369.380,287.960 369.200,288.400 369.200 C 288.840 369.200,289.200 369.020,289.200 368.800 C 289.200 368.580,289.560 368.400,290.000 368.400 C 290.440 368.400,290.800 368.220,290.800 368.000 C 290.800 367.780,291.160 367.600,291.600 367.600 C 292.040 367.600,292.400 367.420,292.400 367.200 C 292.400 366.980,292.760 366.800,293.200 366.800 C 293.640 366.800,294.000 366.620,294.000 366.400 C 294.000 366.180,294.320 366.000,294.712 366.000 C 295.103 366.000,295.683 365.640,296.000 365.200 C 296.317 364.760,296.897 364.400,297.288 364.400 C 297.680 364.400,298.000 364.220,298.000 364.000 C 298.000 363.780,298.360 363.600,298.800 363.600 C 299.240 363.600,299.600 363.420,299.600 363.200 C 299.600 362.980,299.920 362.800,300.312 362.800 C 300.703 362.800,301.283 362.440,301.600 362.000 C 301.917 361.560,302.497 361.200,302.888 361.200 C 303.280 361.200,303.600 361.020,303.600 360.800 C 303.600 360.580,303.920 360.400,304.312 360.400 C 304.703 360.400,305.283 360.040,305.600 359.600 C 305.917 359.160,306.457 358.800,306.800 358.800 C 307.143 358.800,307.683 358.440,308.000 358.000 C 308.317 357.560,308.857 357.200,309.200 357.200 C 309.543 357.200,310.083 356.840,310.400 356.400 C 310.717 355.960,311.257 355.600,311.600 355.600 C 311.943 355.600,312.483 355.240,312.800 354.800 C 313.117 354.360,313.625 354.000,313.928 354.000 C 314.231 354.000,314.983 353.460,315.600 352.800 C 316.217 352.140,316.937 351.600,317.200 351.600 C 317.463 351.600,318.183 351.060,318.800 350.400 C 319.417 349.740,320.133 349.200,320.392 349.200 C 320.651 349.200,321.554 348.480,322.400 347.600 C 323.246 346.720,324.141 346.000,324.391 346.000 C 324.640 346.000,325.904 344.920,327.200 343.600 C 328.496 342.280,329.747 341.200,329.980 341.200 C 330.535 341.200,346.000 325.735,346.000 325.180 C 346.000 324.947,347.080 323.696,348.400 322.400 C 349.720 321.104,350.800 319.837,350.800 319.583 C 350.800 319.329,351.340 318.617,352.000 318.000 C 352.660 317.383,353.200 316.667,353.200 316.408 C 353.200 316.149,353.920 315.246,354.800 314.400 C 355.680 313.554,356.400 312.618,356.400 312.320 C 356.400 312.021,356.760 311.517,357.200 311.200 C 357.640 310.883,358.000 310.375,358.000 310.072 C 358.000 309.769,358.540 309.017,359.200 308.400 C 359.860 307.783,360.400 307.031,360.400 306.728 C 360.400 306.425,360.760 305.917,361.200 305.600 C 361.640 305.283,362.000 304.743,362.000 304.400 C 362.000 304.057,362.360 303.517,362.800 303.200 C 363.240 302.883,363.600 302.303,363.600 301.912 C 363.600 301.520,363.780 301.200,364.000 301.200 C 364.220 301.200,364.400 300.880,364.400 300.488 C 364.400 300.097,364.760 299.517,365.200 299.200 C 365.640 298.883,366.000 298.303,366.000 297.912 C 366.000 297.520,366.180 297.200,366.400 297.200 C 366.620 297.200,366.800 296.880,366.800 296.488 C 366.800 296.097,367.160 295.517,367.600 295.200 C 368.040 294.883,368.400 294.303,368.400 293.912 C 368.400 293.520,368.580 293.200,368.800 293.200 C 369.020 293.200,369.200 292.840,369.200 292.400 C 369.200 291.960,369.380 291.600,369.600 291.600 C 369.820 291.600,370.000 291.240,370.000 290.800 C 370.000 290.360,370.180 290.000,370.400 290.000 C 370.620 290.000,370.800 289.680,370.800 289.288 C 370.800 288.897,371.160 288.317,371.600 288.000 C 372.040 287.683,372.400 287.103,372.400 286.712 C 372.400 286.320,372.580 286.000,372.800 286.000 C 373.020 286.000,373.200 285.640,373.200 285.200 C 373.200 284.760,373.380 284.400,373.600 284.400 C 373.820 284.400,374.000 284.040,374.000 283.600 C 374.000 283.160,374.180 282.800,374.400 282.800 C 374.620 282.800,374.800 282.260,374.800 281.600 C 374.800 280.940,374.980 280.400,375.200 280.400 C 375.420 280.400,375.600 280.040,375.600 279.600 C 375.600 279.160,375.780 278.800,376.000 278.800 C 376.220 278.800,376.400 278.440,376.400 278.000 C 376.400 277.560,376.580 277.200,376.800 277.200 C 377.020 277.200,377.200 276.840,377.200 276.400 C 377.200 275.960,377.380 275.600,377.600 275.600 C 377.820 275.600,378.000 275.060,378.000 274.400 C 378.000 273.740,378.180 273.200,378.400 273.200 C 378.620 273.200,378.800 272.840,378.800 272.400 C 378.800 271.960,378.980 271.600,379.200 271.600 C 379.420 271.600,379.600 271.240,379.600 270.800 C 379.600 270.360,379.780 270.000,380.000 270.000 C 380.220 270.000,380.400 269.460,380.400 268.800 C 380.400 268.140,380.580 267.600,380.800 267.600 C 381.020 267.600,381.200 267.060,381.200 266.400 C 381.200 265.740,381.380 265.200,381.600 265.200 C 381.820 265.200,382.000 264.840,382.000 264.400 C 382.000 263.960,382.180 263.600,382.400 263.600 C 382.620 263.600,382.800 263.060,382.800 262.400 C 382.800 261.740,382.980 261.200,383.200 261.200 C 383.420 261.200,383.600 260.660,383.600 260.000 C 383.600 259.340,383.780 258.800,384.000 258.800 C 384.220 258.800,384.400 258.260,384.400 257.600 C 384.400 256.940,384.580 256.400,384.800 256.400 C 385.020 256.400,385.200 255.680,385.200 254.800 C 385.200 253.920,385.380 253.200,385.600 253.200 C 385.820 253.200,386.000 252.660,386.000 252.000 C 386.000 251.340,386.180 250.800,386.400 250.800 C 386.620 250.800,386.800 250.080,386.800 249.200 C 386.800 248.320,386.980 247.600,387.200 247.600 C 387.420 247.600,387.600 246.880,387.600 246.000 C 387.600 245.120,387.780 244.400,388.000 244.400 C 388.220 244.400,388.400 243.680,388.400 242.800 C 388.400 241.920,388.580 241.200,388.800 241.200 C 389.020 241.200,389.200 240.300,389.200 239.200 C 389.200 238.100,389.380 237.200,389.600 237.200 C 389.822 237.200,390.000 236.133,390.000 234.800 C 390.000 233.467,390.178 232.400,390.400 232.400 C 390.622 232.400,390.800 231.333,390.800 230.000 C 390.800 228.667,390.978 227.600,391.200 227.600 C 391.433 227.600,391.600 226.267,391.600 224.400 C 391.600 222.533,391.767 221.200,392.000 221.200 C 392.242 221.200,392.400 219.467,392.400 216.800 C 392.400 214.133,392.558 212.400,392.800 212.400 C 393.058 212.400,393.200 208.000,393.200 200.000 C 393.200 192.000,393.058 187.600,392.800 187.600 C 392.558 187.600,392.400 185.867,392.400 183.200 C 392.400 180.533,392.242 178.800,392.000 178.800 C 391.767 178.800,391.600 177.467,391.600 175.600 C 391.600 173.733,391.433 172.400,391.200 172.400 C 390.978 172.400,390.800 171.333,390.800 170.000 C 390.800 168.667,390.622 167.600,390.400 167.600 C 390.178 167.600,390.000 166.533,390.000 165.200 C 390.000 163.867,389.822 162.800,389.600 162.800 C 389.380 162.800,389.200 161.900,389.200 160.800 C 389.200 159.700,389.020 158.800,388.800 158.800 C 388.580 158.800,388.400 158.080,388.400 157.200 C 388.400 156.320,388.220 155.600,388.000 155.600 C 387.780 155.600,387.600 154.880,387.600 154.000 C 387.600 153.120,387.420 152.400,387.200 152.400 C 386.980 152.400,386.800 151.680,386.800 150.800 C 386.800 149.920,386.620 149.200,386.400 149.200 C 386.180 149.200,386.000 148.660,386.000 148.000 C 386.000 147.340,385.820 146.800,385.600 146.800 C 385.380 146.800,385.200 146.080,385.200 145.200 C 385.200 144.320,385.020 143.600,384.800 143.600 C 384.580 143.600,384.400 143.060,384.400 142.400 C 384.400 141.740,384.220 141.200,384.000 141.200 C 383.780 141.200,383.600 140.660,383.600 140.000 C 383.600 139.340,383.420 138.800,383.200 138.800 C 382.980 138.800,382.800 138.260,382.800 137.600 C 382.800 136.940,382.620 136.400,382.400 136.400 C 382.180 136.400,382.000 136.040,382.000 135.600 C 382.000 135.160,381.820 134.800,381.600 134.800 C 381.380 134.800,381.200 134.260,381.200 133.600 C 381.200 132.940,381.020 132.400,380.800 132.400 C 380.580 132.400,380.400 131.860,380.400 131.200 C 380.400 130.540,380.220 130.000,380.000 130.000 C 379.780 130.000,379.600 129.640,379.600 129.200 C 379.600 128.760,379.420 128.400,379.200 128.400 C 378.980 128.400,378.800 128.040,378.800 127.600 C 378.800 127.160,378.620 126.800,378.400 126.800 C 378.180 126.800,378.000 126.260,378.000 125.600 C 378.000 124.940,377.820 124.400,377.600 124.400 C 377.380 124.400,377.200 124.040,377.200 123.600 C 377.200 123.160,377.020 122.800,376.800 122.800 C 376.580 122.800,376.400 122.440,376.400 122.000 C 376.400 121.560,376.220 121.200,376.000 121.200 C 375.780 121.200,375.600 120.660,375.600 120.000 C 375.600 119.340,375.420 118.800,375.200 118.800 C 374.980 118.800,374.800 118.440,374.800 118.000 C 374.800 117.560,374.620 117.200,374.400 117.200 C 374.180 117.200,374.000 116.840,374.000 116.400 C 374.000 115.960,373.820 115.600,373.600 115.600 C 373.380 115.600,373.200 115.240,373.200 114.800 C 373.200 114.360,373.020 114.000,372.800 114.000 C 372.580 114.000,372.400 113.640,372.400 113.200 C 372.400 112.760,372.220 112.400,372.000 112.400 C 371.780 112.400,371.600 112.080,371.600 111.688 C 371.600 111.297,371.240 110.717,370.800 110.400 C 370.360 110.083,370.000 109.503,370.000 109.112 C 370.000 108.720,369.820 108.400,369.600 108.400 C 369.380 108.400,369.200 108.040,369.200 107.600 C 369.200 107.160,369.020 106.800,368.800 106.800 C 368.580 106.800,368.400 106.480,368.400 106.088 C 368.400 105.697,368.040 105.117,367.600 104.800 C 367.160 104.483,366.800 103.903,366.800 103.512 C 366.800 103.120,366.620 102.800,366.400 102.800 C 366.180 102.800,366.000 102.480,366.000 102.088 C 366.000 101.697,365.640 101.117,365.200 100.800 C 364.760 100.483,364.400 99.903,364.400 99.512 C 364.400 99.120,364.220 98.800,364.000 98.800 C 363.780 98.800,363.600 98.480,363.600 98.088 C 363.600 97.697,363.240 97.117,362.800 96.800 C 362.360 96.483,362.000 95.943,362.000 95.600 C 362.000 95.257,361.640 94.717,361.200 94.400 C 360.760 94.083,360.400 93.575,360.400 93.272 C 360.400 92.969,359.860 92.217,359.200 91.600 C 358.540 90.983,358.000 90.231,358.000 89.928 C 358.000 89.625,357.640 89.117,357.200 88.800 C 356.760 88.483,356.400 87.979,356.400 87.680 C 356.400 87.382,355.680 86.446,354.800 85.600 C 353.920 84.754,353.200 83.851,353.200 83.592 C 353.200 83.333,352.660 82.617,352.000 82.000 C 351.340 81.383,350.800 80.673,350.800 80.420 C 350.800 80.168,349.540 78.719,348.000 77.200 C 346.460 75.681,345.200 74.249,345.200 74.017 C 345.200 73.464,330.534 58.800,329.981 58.800 C 329.747 58.800,328.496 57.720,327.200 56.400 C 325.904 55.080,324.637 54.000,324.383 54.000 C 324.129 54.000,323.417 53.460,322.800 52.800 C 322.183 52.140,321.467 51.600,321.208 51.600 C 320.949 51.600,320.046 50.880,319.200 50.000 C 318.354 49.120,317.451 48.400,317.192 48.400 C 316.933 48.400,316.217 47.860,315.600 47.200 C 314.983 46.540,314.231 46.000,313.928 46.000 C 313.625 46.000,313.117 45.640,312.800 45.200 C 312.483 44.760,311.943 44.400,311.600 44.400 C 311.257 44.400,310.717 44.040,310.400 43.600 C 310.083 43.160,309.543 42.800,309.200 42.800 C 308.857 42.800,308.317 42.440,308.000 42.000 C 307.683 41.560,307.143 41.200,306.800 41.200 C 306.457 41.200,305.917 40.840,305.600 40.400 C 305.283 39.960,304.703 39.600,304.312 39.600 C 303.920 39.600,303.600 39.420,303.600 39.200 C 303.600 38.980,303.280 38.800,302.888 38.800 C 302.497 38.800,301.917 38.440,301.600 38.000 C 301.283 37.560,300.703 37.200,300.312 37.200 C 299.920 37.200,299.600 37.020,299.600 36.800 C 299.600 36.580,299.280 36.400,298.888 36.400 C 298.497 36.400,297.917 36.040,297.600 35.600 C 297.283 35.160,296.703 34.800,296.312 34.800 C 295.920 34.800,295.600 34.620,295.600 34.400 C 295.600 34.180,295.240 34.000,294.800 34.000 C 294.360 34.000,294.000 33.820,294.000 33.600 C 294.000 33.380,293.640 33.200,293.200 33.200 C 292.760 33.200,292.400 33.020,292.400 32.800 C 292.400 32.580,292.040 32.400,291.600 32.400 C 291.160 32.400,290.800 32.220,290.800 32.000 C 290.800 31.780,290.440 31.600,290.000 31.600 C 289.560 31.600,289.200 31.420,289.200 31.200 C 289.200 30.980,288.840 30.800,288.400 30.800 C 287.960 30.800,287.600 30.620,287.600 30.400 C 287.600 30.180,287.240 30.000,286.800 30.000 C 286.360 30.000,286.000 29.820,286.000 29.600 C 286.000 29.380,285.640 29.200,285.200 29.200 C 284.760 29.200,284.400 29.020,284.400 28.800 C 284.400 28.580,284.040 28.400,283.600 28.400 C 283.160 28.400,282.800 28.220,282.800 28.000 C 282.800 27.780,282.260 27.600,281.600 27.600 C 280.940 27.600,280.400 27.420,280.400 27.200 C 280.400 26.980,280.040 26.800,279.600 26.800 C 279.160 26.800,278.800 26.620,278.800 26.400 C 278.800 26.180,278.440 26.000,278.000 26.000 C 277.560 26.000,277.200 25.820,277.200 25.600 C 277.200 25.380,276.660 25.200,276.000 25.200 C 275.340 25.200,274.800 25.020,274.800 24.800 C 274.800 24.580,274.440 24.400,274.000 24.400 C 273.560 24.400,273.200 24.220,273.200 24.000 C 273.200 23.780,272.660 23.600,272.000 23.600 C 271.340 23.600,270.800 23.420,270.800 23.200 C 270.800 22.980,270.440 22.800,270.000 22.800 C 269.560 22.800,269.200 22.620,269.200 22.400 C 269.200 22.180,268.660 22.000,268.000 22.000 C 267.340 22.000,266.800 21.820,266.800 21.600 C 266.800 21.380,266.260 21.200,265.600 21.200 C 264.940 21.200,264.400 21.020,264.400 20.800 C 264.400 20.580,263.860 20.400,263.200 20.400 C 262.540 20.400,262.000 20.220,262.000 20.000 C 262.000 19.780,261.460 19.600,260.800 19.600 C 260.140 19.600,259.600 19.420,259.600 19.200 C 259.600 18.980,258.880 18.800,258.000 18.800 C 257.120 18.800,256.400 18.620,256.400 18.400 C 256.400 18.180,255.860 18.000,255.200 18.000 C 254.540 18.000,254.000 17.820,254.000 17.600 C 254.000 17.380,253.280 17.200,252.400 17.200 C 251.520 17.200,250.800 17.020,250.800 16.800 C 250.800 16.580,250.080 16.400,249.200 16.400 C 248.320 16.400,247.600 16.220,247.600 16.000 C 247.600 15.780,246.700 15.600,245.600 15.600 C 244.500 15.600,243.600 15.420,243.600 15.200 C 243.600 14.980,242.700 14.800,241.600 14.800 C 240.500 14.800,239.600 14.620,239.600 14.400 C 239.600 14.180,239.060 14.000,238.400 14.000 C 237.740 14.000,237.200 13.820,237.200 13.600 C 237.200 13.363,235.733 13.200,233.600 13.200 C 231.467 13.200,230.000 13.037,230.000 12.800 C 230.000 12.563,228.533 12.400,226.400 12.400 C 224.267 12.400,222.800 12.237,222.800 12.000 C 222.800 11.751,220.533 11.600,216.800 11.600 C 213.067 11.600,210.800 11.449,210.800 11.200 C 210.800 10.949,208.267 10.800,204.000 10.800 C 199.733 10.800,197.200 10.949,197.200 11.200 M137.000 44.728 C 145.843 46.152,148.654 49.052,158.975 67.400 C 160.089 69.380,162.349 72.890,163.998 75.200 C 167.465 80.057,169.127 82.690,171.191 86.600 C 173.728 91.403,174.402 92.465,176.762 95.374 C 180.103 99.493,181.174 101.172,184.729 107.867 C 186.490 111.181,189.414 116.122,191.228 118.847 C 193.041 121.571,195.374 125.420,196.411 127.400 C 198.861 132.077,199.923 133.959,200.847 135.262 C 201.261 135.846,201.600 136.434,201.600 136.569 C 201.600 136.704,202.320 138.000,203.200 139.448 C 204.080 140.897,204.800 142.135,204.800 142.200 C 204.800 142.421,208.111 147.789,209.659 150.078 C 210.507 151.331,211.200 152.469,211.200 152.606 C 211.200 152.743,211.701 153.608,212.312 154.528 C 212.924 155.448,213.668 156.683,213.966 157.274 C 214.264 157.865,215.469 159.575,216.644 161.074 C 217.819 162.573,219.586 164.826,220.572 166.081 C 222.032 167.939,226.400 176.059,226.400 176.914 C 226.400 177.501,235.753 192.200,237.734 194.726 C 242.399 200.677,243.447 202.280,246.466 208.087 C 251.308 217.403,255.964 222.785,259.600 223.267 C 260.777 223.423,260.895 222.647,261.594 210.200 C 261.816 206.240,262.215 199.940,262.479 196.200 C 262.744 192.460,262.886 187.510,262.795 185.200 C 262.479 177.184,262.620 167.761,263.164 160.400 C 263.886 150.627,263.905 147.208,263.256 143.600 C 262.476 139.263,262.250 134.594,262.727 132.670 C 263.875 128.042,264.125 124.054,263.679 117.510 C 263.369 112.969,263.358 110.140,263.643 108.194 C 264.195 104.431,264.180 93.776,263.617 89.700 C 263.274 87.214,263.277 85.586,263.627 83.100 C 263.883 81.285,264.079 76.380,264.062 72.200 C 264.000 56.526,265.119 48.800,267.450 48.800 C 267.758 48.800,268.323 48.629,268.705 48.419 C 273.431 45.826,294.192 43.090,299.321 44.384 C 307.012 46.325,310.746 51.038,312.327 60.800 C 313.028 65.122,312.665 107.182,311.882 112.462 C 311.371 115.905,311.336 117.250,311.699 119.462 C 312.250 122.821,312.181 143.606,311.611 146.152 C 311.366 147.244,311.213 157.515,311.219 172.515 C 311.225 189.440,311.087 197.698,310.775 199.045 C 310.199 201.528,310.204 210.724,310.784 215.322 C 311.028 217.259,311.125 219.419,310.999 220.122 C 310.493 222.953,309.845 239.692,309.812 250.800 C 309.792 257.290,309.538 265.120,309.247 268.200 C 308.880 272.070,308.798 276.395,308.980 282.200 C 309.410 295.907,309.400 297.245,308.852 300.800 C 308.564 302.670,308.172 310.140,307.982 317.400 C 307.352 341.399,307.121 341.691,288.798 341.746 C 281.959 341.767,277.770 341.621,276.998 341.335 C 276.339 341.092,274.990 340.653,274.000 340.360 C 265.228 337.764,255.196 328.741,250.028 318.800 C 249.285 317.370,248.374 315.750,248.003 315.200 C 247.633 314.650,247.232 313.930,247.112 313.600 C 246.992 313.270,245.858 311.560,244.592 309.800 C 240.559 304.192,238.578 301.098,236.526 297.200 C 233.296 291.063,231.696 288.531,225.785 280.200 C 225.005 279.100,223.661 276.940,222.799 275.400 C 221.936 273.860,219.919 270.687,218.315 268.348 C 216.712 266.009,213.938 261.954,212.151 259.336 C 210.365 256.719,208.012 253.592,206.923 252.388 C 204.309 249.499,202.757 247.172,200.328 242.501 C 199.223 240.375,197.617 237.603,196.759 236.340 C 195.902 235.077,195.200 233.927,195.200 233.784 C 195.200 233.641,194.864 233.046,194.453 232.462 C 194.042 231.878,192.990 230.050,192.116 228.400 C 190.696 225.719,189.506 223.949,184.864 217.607 C 183.652 215.950,182.326 213.397,180.604 209.400 C 176.936 200.888,171.571 190.486,168.845 186.600 C 167.301 184.400,164.744 180.554,163.163 178.054 C 157.105 168.473,153.422 166.001,151.634 170.317 C 151.028 171.781,151.725 212.439,152.437 217.200 C 152.764 219.383,152.769 221.235,152.455 224.000 C 151.400 233.292,151.084 245.583,151.369 266.200 C 151.695 289.835,152.326 315.743,152.667 319.600 C 152.897 322.187,152.335 328.166,151.541 331.600 C 149.404 340.833,141.726 344.312,124.400 343.898 C 112.994 343.626,107.995 342.069,104.701 337.760 C 100.898 332.786,100.832 332.297,101.067 311.000 C 101.277 292.051,101.303 283.652,101.184 272.800 C 101.144 269.170,101.341 259.450,101.621 251.200 C 101.901 242.950,102.062 233.680,101.979 230.600 C 101.794 223.752,101.792 204.430,101.975 196.000 C 102.124 189.145,101.521 177.554,100.758 172.600 C 100.133 168.546,100.131 168.715,100.929 160.481 C 101.689 152.645,101.828 136.899,101.207 129.122 C 100.990 126.415,100.705 117.630,100.573 109.600 C 100.441 101.570,100.308 94.280,100.278 93.400 C 100.248 92.520,100.485 90.180,100.805 88.200 C 101.442 84.251,101.544 67.639,101.005 55.561 C 100.658 47.776,101.154 45.745,103.672 44.645 C 105.223 43.967,132.702 44.035,137.000 44.728 " stroke="none" fill="#fbd434" fill-rule="evenodd"></path></g></svg>